<?xml version="1.0" encoding="UTF-8" standalone="no"?>
<svg
   xmlns:dc="http://purl.org/dc/elements/1.1/"
   xmlns:cc="http://creativecommons.org/ns#"
   xmlns:rdf="http://www.w3.org/1999/02/22-rdf-syntax-ns#"
   xmlns:svg="http://www.w3.org/2000/svg"
   xmlns="http://www.w3.org/2000/svg"
   xmlns:sodipodi="http://sodipodi.sourceforge.net/DTD/sodipodi-0.dtd"
   xmlns:inkscape="http://www.inkscape.org/namespaces/inkscape"
   width="480"
   height="480"
   viewBox="0 0 127 127"
   version="1.1"
   id="svg48104"
   inkscape:version="1.0.1 (c497b03c, 2020-09-10)"
   sodipodi:docname="dag.svg"
   inkscape:export-filename="/Users/hallelujah/dev/learnNikud/graphics/logo1.png"
   inkscape:export-xdpi="204.8"
   inkscape:export-ydpi="204.8">
  <defs
     id="defs48098">
    <marker
       style="overflow:visible;"
       id="Arrow1Lend"
       refX="0.0"
       refY="0.0"
       orient="auto"
       inkscape:stockid="Arrow1Lend"
       inkscape:isstock="true">
      <path
         transform="scale(0.8) rotate(180) translate(12.5,0)"
         style="fill-rule:evenodd;stroke:#d40000;stroke-width:1pt;stroke-opacity:1;fill:#d40000;fill-opacity:1"
         d="M 0.0,0.0 L 5.0,-5.0 L -12.5,0.0 L 5.0,5.0 L 0.0,0.0 z "
         id="path5925" />
    </marker>
    <marker
       style="overflow:visible"
       id="Arrow1Lstart"
       refX="0.0"
       refY="0.0"
       orient="auto"
       inkscape:stockid="Arrow1Lstart"
       inkscape:isstock="true">
      <path
         transform="scale(0.8) translate(12.5,0)"
         style="fill-rule:evenodd;stroke:#000000;stroke-width:1pt;stroke-opacity:1;fill:#000000;fill-opacity:1"
         d="M 0.0,0.0 L 5.0,-5.0 L -12.5,0.0 L 5.0,5.0 L 0.0,0.0 z "
         id="path5922" />
    </marker>
    <clipPath
       clipPathUnits="userSpaceOnUse"
       id="clipPath38248">
      <path
         d="m 53754.8,14191.9 -3492,-8696.6 c 546.4,-165.8 1085.7,-363.2 1615.1,-592.4 1237.7,2860.2 2475.5,5720.4 3713.2,8580.6 -604.7,261.7 -1217.3,497.7 -1836.3,708.4 z"
         id="path38246" />
    </clipPath>
    <clipPath
       clipPathUnits="userSpaceOnUse"
       id="clipPath39288">
      <path
         d="m 37714.5,14100.2 c -529.1,-186.9 -1053.4,-392.3 -1571.8,-616.7 1237.7,-2860.2 2475.4,-5720.4 3713.1,-8580.6 504.9,218.5 1018.7,408.2 1539.1,569.2 z"
         id="path39286" />
    </clipPath>
    <clipPath
       clipPathUnits="userSpaceOnUse"
       id="clipPath40328">
      <path
         d="m 51794.9,4710.7 3874.2,8971.9 1229.5,-530.9 -3874.3,-8971.9 z"
         id="path40326" />
    </clipPath>
    <clipPath
       clipPathUnits="userSpaceOnUse"
       id="clipPath41368">
      <path
         d="m 55999.8,13830 c 0,0 170,-73.5 382.8,-165.4 215.2,-92.9 392.7,-169.5 396.4,-171.2 0.1,0 0.1,0 0.1,0 3.4,8 6.2,16.1 8.2,24.3 2.1,8.1 3.4,16.3 4.1,24.5 0.7,8.2 0.8,16.4 0.2,24.5 -0.5,8.2 -1.7,16.2 -3.5,24 -1.9,7 -4.8,16.3 -7.2,23.1 -3,7.5 -6.5,14.7 -10.6,21.7 -4.1,6.9 -8.7,13.6 -13.9,19.9 -5.1,6.3 -10.7,12.2 -16.9,17.7 -5.8,4.8 -13.7,10.8 -19.8,15.1 -7.1,4.5 -14.7,8.5 -22.6,12 h -0.1 c -2.3,1 -114.1,49.2 -249.5,107.7 -134,57.9 -241,104.1 -241,104.1 -3.6,1.4 -8.3,3.5 -12,4.6 -7.3,2.2 -17,4.9 -24.5,6.2 -17.3,2.9 -31.4,2.1 -36.8,1.7 -6.5,-0.4 -19.9,-1.8 -35.6,-6.7 -7,-2.1 -15.9,-6 -22.5,-8.9 -3.3,-1.5 -7.4,-4 -10.6,-5.7 -7,-4.1 -13.6,-8.7 -19.9,-13.9 -5.5,-4.8 -12.9,-11.4 -17.7,-16.9 -5,-5.6 -10.8,-13.7 -15.1,-19.9 -4.5,-7 -8.6,-14.6 -12,-22.5 z"
         id="path41366" />
    </clipPath>
    <clipPath
       clipPathUnits="userSpaceOnUse"
       id="clipPath41520">
      <path
         d="m 56245.7,13895 c 0,0 89.9,-38.8 202.5,-87.4 113.8,-49.1 207.6,-89.6 209.6,-90.5 v 0 c 1.6,2.2 5.8,8.4 12.5,18.1 8,11.6 18.7,27.2 26.7,38.9 11,16 24,35.1 38.6,56.5 14.6,21.5 30.8,45.3 48.3,71.1 17.4,25.8 36.1,53.5 55.7,82.5 19.5,29.1 39.9,59.5 60.7,90.8 20.9,31.3 42.2,63.5 63.7,96 21.4,32.5 42.9,65.3 64.1,97.9 21.3,32.7 42.2,65.2 62.5,96.9 20.2,31.8 39.9,62.9 58.4,92.7 18.6,29.8 38.4,60.9 58.9,92.8 20.5,31.9 41.7,64.7 63.2,98.1 21.4,33.5 43.1,67.6 64.6,102 21.4,34.4 42.5,69.1 62.9,104 20.4,34.8 40,69.7 58.4,104.4 18.4,34.7 35.5,69.2 50.8,103.2 15.3,34 28.9,67.5 40.2,100.3 11.3,32.8 20.4,64.8 26.7,95.8 6.3,31 9.9,60.9 10.2,89.5 0.2,28.7 -2.7,56 -9.4,81.7 -4.6,17.5 -10.9,34.2 -18.7,50.2 -7.7,16 -16.9,31.2 -27.1,45.7 -10.2,14.4 -21.5,28.1 -33.4,41.1 -11.9,12.9 -24.5,25 -37.4,36.4 -12.8,11.3 -26,21.9 -39.1,31.6 -13,9.7 -26,18.7 -38.5,26.8 -12.5,8 -24.6,15.3 -35.8,21.7 -11.2,6.4 -21.6,12 -30.7,16.7 -7,3.5 -16.4,8.2 -23.4,11.6 -6.4,2.9 -11.1,5 -13.9,6.2 -18.3,7.8 -32,12.7 -38.5,14.9 -13.4,4.7 -28.7,10 -52.6,16.6 -46.1,12.7 -80.2,17.5 -91.4,19 -40.5,5.7 -71.6,5.3 -77.4,5.2 -15.9,-0.4 -37,-2.2 -52.8,-3.9 -8,-0.9 -18.3,-3.3 -26.2,-4.7 -15.7,-2.9 -36.2,-9.4 -50.8,-16 -18.3,-8.4 -42,-21.6 -58.1,-33.6 -10.1,-7.5 -23.4,-18.1 -32,-27.3 -18.5,-19.7 -41.7,-47.3 -58.2,-68.8 -18.2,-25.8 -35.3,-54.3 -51.4,-85.1 -14.3,-29 -33,-68.1 -45.5,-98 -6.5,-15.8 -14.9,-36.8 -20.7,-52.9 -11.9,-33.2 -27.6,-77.6 -38,-111.3 -11.7,-37.8 -26.3,-84.8 -50.1,-174.8 -15,-56.9 -27.2,-106.1 -44.1,-174.2 -8.2,-33.1 -19.1,-77.3 -27.6,-110.3 -3.9,-15.7 -9.4,-36.5 -13.5,-52.2 -8.3,-31.8 -19.3,-74.2 -27.3,-106 -8.5,-33.6 -19.6,-78.3 -27.8,-111.9 -21.8,-89.7 -37.9,-159 -53.5,-226 -8.5,-36.7 -16.7,-72.4 -24.4,-106.5 -13.1,-58 -23.5,-103.8 -40.5,-181 -10.7,-48.2 -20.5,-93.4 -29.4,-134.5 z"
         id="path41518" />
    </clipPath>
    <clipPath
       clipPathUnits="userSpaceOnUse"
       id="clipPath41720">
      <path
         d="m 55502.9,13754.4 c 0,0 340.7,-147.1 767.3,-331.3 431.3,-186.2 787,-339.8 794.5,-343.1 0.1,0 0.1,0 0.1,0 6.8,-2.9 13.6,-5.3 20.5,-7 6.9,-1.7 13.9,-2.9 20.8,-3.5 7,-0.6 13.9,-0.6 20.8,-0.2 6.9,0.5 13.6,1.5 20.3,3.1 6.7,1.5 13.2,3.5 19.5,6 6.3,2.6 12.5,5.6 18.4,9 5.9,3.5 11.5,7.4 16.8,11.7 5.4,4.4 10.4,9.2 15,14.4 4.7,5.2 8.9,10.8 12.8,16.8 3.8,6 7.2,12.4 10.1,19.1 3,6.8 5.3,13.6 7,20.5 1.7,7 2.9,13.9 3.5,20.9 0.6,6.9 0.6,13.8 0.2,20.7 -0.5,6.9 -1.5,13.6 -3.1,20.3 -1.5,6.7 -3.5,13.2 -6,19.5 -2.5,6.4 -5.5,12.5 -9,18.4 -3.5,5.9 -7.4,11.5 -11.7,16.9 -4.4,5.3 -9.2,10.3 -14.4,14.9 -5.2,4.7 -10.8,9 -16.8,12.8 -6,3.8 -12.4,7.2 -19.1,10.2 h -0.1 c -7.6,3.3 -363.2,156.9 -794.5,343.1 -426.6,184.2 -767.3,331.3 -767.3,331.3 -6.1,2.3 -14.2,5.4 -20.5,7 -6.2,1.5 -14.5,3.1 -20.8,3.5 -6.3,0.3 -14.6,0.8 -20.8,0.1 -3.1,-0.3 -7.2,-0.5 -10.2,-1.1 -6,-1.1 -14.1,-2.8 -20,-4.6 -5.8,-1.7 -13.3,-5 -19,-7.5 -2.8,-1.2 -6.3,-3.4 -9,-4.8 -5.4,-2.9 -11.9,-8 -16.8,-11.8 -5,-3.7 -10.9,-9.6 -15,-14.3 -4.2,-4.7 -9.2,-11.6 -12.8,-16.8 -3.8,-6 -7.2,-12.4 -10.1,-19.1 v 0 c -2.4,-6.1 -5.7,-14.2 -7,-20.6 -0.7,-3.1 -1.8,-7.2 -2.2,-10.4 -0.8,-6.2 -1.7,-14.5 -1.8,-20.8 -0.1,-9.5 0.9,-28.7 9.4,-50.2 8.6,-21.4 21,-36.1 27.6,-42.9 4.3,-4.5 10.7,-10 15.6,-13.9 2.4,-2.1 6.1,-4.3 8.7,-6.1 5.3,-3.7 13.3,-7.4 19.1,-10.2 z"
         id="path41718" />
    </clipPath>
    <clipPath
       clipPathUnits="userSpaceOnUse"
       id="clipPath41904">
      <path
         d="m 56206.5,13912 c 0,0 0,0 0.1,0 -79.7,34.4 -172.3,-2.3 -206.7,-82.1 -0.1,0 -0.1,0.1 -0.1,0.1 3.4,7.9 7.5,15.5 12,22.5 4.3,6.2 10.1,14.3 15.1,19.9 4.8,5.5 12.2,12.1 17.7,16.9 6.3,5.2 12.9,9.8 19.9,13.9 3.2,1.7 7.3,4.2 10.6,5.7 6.6,2.9 15.5,6.8 22.5,8.9 15.7,4.9 29.1,6.3 35.6,6.7 5.4,0.4 19.5,1.2 36.8,-1.7 7.5,-1.3 17.2,-4 24.5,-6.2 3.7,-1.1 8.4,-3.2 12,-4.6 z"
         id="path41902" />
    </clipPath>
    <clipPath
       clipPathUnits="userSpaceOnUse"
       id="clipPath42060">
      <path
         d="m 56448.6,14760.9 c 4.1,15.7 9.6,36.5 13.5,52.2 8.5,33 19.4,77.2 27.6,110.3 23.9,96.5 48.7,196.3 76.7,291.4 26.9,91.6 47.8,148.6 55.5,168.9 11.9,31.4 28.7,72.9 42.8,103.3 6.7,14.5 16.4,33.4 23.4,47.6 16.1,30.8 33.2,59.3 51.4,85.1 16.5,21.5 39.7,49.1 58.2,68.8 8.6,9.2 21.9,19.8 32,27.3 16.1,12 39.8,25.2 58.1,33.6 14.6,6.6 35.1,13.1 50.8,16 7.9,1.4 18.2,3.8 26.2,4.7 15.8,1.7 36.9,3.5 52.8,3.9 5.8,0.1 36.9,0.5 77.4,-5.2 14.5,-2 33.7,-5.4 48.1,-8.4 13.1,-2.7 30.4,-7.1 43.3,-10.6 23.9,-6.6 39.2,-11.9 52.6,-16.6 6.5,-2.2 20.2,-7.1 38.5,-14.9 -27.7,12 -255.6,106 -413.8,19.4 -233.3,-127.7 -325.1,-637.1 -415,-976.8 -89.9,-339.7 -197.3,-839.6 -202.9,-865.9 h -0.1 c 3.3,15.4 13.4,61.9 29.4,134.5 5.5,25.2 13,58.7 18.6,83.9 12.5,55.7 21.9,97.1 21.9,97.1 7.7,34.1 15.9,69.8 24.4,106.5 15.6,67 31.7,136.3 53.5,226 8.2,33.6 19.3,78.3 27.8,111.9 8,31.8 19.1,74.2 27.3,106 z"
         id="path42058" />
    </clipPath>
    <clipPath
       clipPathUnits="userSpaceOnUse"
       id="clipPath42160">
      <path
         d="m 55433.5,13929.5 c 2.9,6.7 6.3,13.1 10.1,19.1 3.6,5.2 8.6,12.1 12.8,16.8 4.1,4.7 10,10.6 15,14.3 4.9,3.8 11.4,8.9 16.8,11.8 2.7,1.4 6.2,3.6 9,4.8 5.7,2.5 13.2,5.8 19,7.5 5.9,1.8 14,3.5 20,4.6 3,0.6 7.1,0.8 10.2,1.1 6.2,0.7 14.5,0.2 20.8,-0.1 6.3,-0.4 14.6,-2 20.8,-3.5 6.3,-1.6 14.4,-4.7 20.5,-7 0,0 0,0 0.1,0 -67.5,29.1 -145.8,-2 -175,-69.5 -29.2,-67.5 1.9,-145.9 69.4,-175 h -0.1 c -5.8,2.8 -13.8,6.5 -19.1,10.2 -2.6,1.8 -6.3,4 -8.7,6.1 -4.9,3.9 -11.3,9.4 -15.6,13.9 -6.6,6.8 -19,21.5 -27.6,42.9 -8.5,21.5 -9.5,40.7 -9.4,50.2 0.1,6.3 1,14.6 1.8,20.8 0.4,3.2 1.5,7.3 2.2,10.4 1.3,6.4 4.6,14.5 7,20.6 z"
         id="path42158" />
    </clipPath>
    <clipPath
       clipPathUnits="userSpaceOnUse"
       id="clipPath42212">
      <path
         d="m 56657.8,13717.1 c 1.6,2.2 5.8,8.4 12.5,18.1 v 0 c 8,11.6 18.7,27.2 26.7,38.9 11,16 24,35.1 38.6,56.5 14.6,21.5 30.8,45.3 48.3,71.1 17.4,25.8 36.1,53.5 55.7,82.5 19.5,29.1 39.9,59.5 60.7,90.8 20.9,31.3 42.2,63.5 63.7,96 21.4,32.5 42.9,65.3 64.1,97.9 21.3,32.7 42.2,65.2 62.5,96.9 20.2,31.8 39.9,62.9 58.4,92.7 18.6,29.8 38.4,60.9 58.9,92.8 20.5,31.9 41.7,64.7 63.2,98.1 21.4,33.5 43.1,67.6 64.6,102 21.4,34.4 42.5,69.1 62.9,104 20.4,34.8 40,69.7 58.4,104.4 18.4,34.7 35.5,69.2 50.8,103.2 15.3,34 28.9,67.5 40.2,100.3 11.3,32.8 20.4,64.8 26.7,95.8 6.3,31 9.9,60.9 10.2,89.5 0.2,28.7 -2.7,56 -9.4,81.7 -4.6,17.5 -10.9,34.2 -18.7,50.2 -7.7,16 -16.9,31.2 -27.1,45.7 -10.2,14.4 -21.5,28.1 -33.4,41.1 -11.9,12.9 -24.5,25 -37.4,36.4 -12.8,11.3 -26,21.9 -39.1,31.6 -13,9.7 -26,18.7 -38.5,26.8 -12.5,8 -24.6,15.3 -35.8,21.7 -11.2,6.4 -21.6,12 -30.7,16.7 v 0 c -7,3.5 -16.4,8.2 -23.4,11.6 -6.4,2.9 -11.1,5 -13.9,6.2 -27.7,12 -255.6,106 -413.8,19.4 -233.3,-127.7 -325.1,-637.1 -415,-976.8 -89.9,-339.7 -197.3,-839.6 -202.9,-865.9 2,-0.8 95.8,-41.3 209.6,-90.5 112.5,-48.6 202.4,-87.4 202.4,-87.4 z"
         id="path42210" />
    </clipPath>
    <clipPath
       clipPathUnits="userSpaceOnUse"
       id="clipPath42408">
      <path
         d="m 56779.1,13493.4 c 3.4,8 6.2,16.1 8.2,24.3 2.1,8.1 3.4,16.3 4.1,24.5 0.7,8.2 0.8,16.4 0.2,24.5 -0.5,8.2 -1.7,16.2 -3.5,24 1.4,3.4 -2.1,8.2 -3.2,11.7 -1.1,3.5 -2.8,8 -4,11.4 -3,7.5 -6.5,14.7 -10.6,21.7 -4.1,6.9 -8.7,13.6 -13.9,19.9 -5.1,6.3 -10.7,12.2 -16.9,17.7 v 0 c -5.8,4.8 -13.7,10.8 -19.8,15.1 -7.1,4.5 -14.7,8.5 -22.6,12 0,0 -107.1,46.2 -241,104 -135.5,58.5 -247.2,106.7 -249.5,107.8 -79.7,34.4 -172.3,-2.3 -206.7,-82.1 3.7,-1.6 181.2,-78.2 396.3,-171.2 212.9,-91.9 382.9,-165.3 382.9,-165.3 z"
         id="path42406" />
    </clipPath>
    <clipPath
       clipPathUnits="userSpaceOnUse"
       id="clipPath42608">
      <path
         d="m 57064.8,13080 c 6.8,-2.9 13.6,-5.3 20.5,-7 6.9,-1.7 13.9,-2.9 20.8,-3.5 7,-0.6 13.9,-0.6 20.8,-0.2 6.9,0.5 13.6,1.5 20.3,3.1 6.7,1.5 13.2,3.5 19.5,6 6.3,2.6 12.5,5.6 18.4,9 5.9,3.5 11.5,7.4 16.8,11.7 5.4,4.4 10.4,9.2 15,14.4 4.7,5.2 8.9,10.8 12.8,16.8 3.8,6 7.2,12.4 10.1,19.1 3,6.8 5.3,13.6 7,20.5 1.7,7 2.9,13.9 3.5,20.9 0.6,6.9 0.6,13.8 0.2,20.7 -0.5,6.9 -1.5,13.6 -3.1,20.3 -1.5,6.7 -3.5,13.2 -6,19.5 -2.5,6.4 -5.5,12.5 -9,18.4 -3.5,5.9 -7.4,11.5 -11.7,16.9 -4.4,5.3 -9.2,10.3 -14.4,14.9 -5.2,4.7 -10.8,9 -16.8,12.8 -6,3.8 -12.4,7.2 -19.1,10.2 0,0 -340.7,147.1 -767.3,331.3 -431.3,186.2 -787,339.8 -794.5,343.1 -67.5,29.1 -145.8,-2 -175,-69.5 -29.2,-67.5 1.9,-145.9 69.4,-175 7.6,-3.3 363.3,-156.9 794.5,-343.1 426.6,-184.2 767.3,-331.3 767.3,-331.3 z"
         id="path42606" />
    </clipPath>
    <clipPath
       clipPathUnits="userSpaceOnUse"
       id="clipPath42792">
      <path
         d="m 51914.4,4369.1 c 0,0 170,-73.5 382.8,-165.4 215.2,-92.9 392.7,-169.5 396.4,-171.1 0.1,-0.1 0.1,-0.1 0.1,-0.1 -3.5,-7.9 -7.5,-15.5 -12,-22.6 -4.6,-7.1 -9.6,-13.7 -15.1,-19.8 -5.5,-6.2 -11.4,-11.8 -17.7,-17 -6.3,-5.1 -12.9,-9.7 -19.9,-13.8 -6.4,-3.4 -15.1,-7.7 -21.7,-10.6 -7.5,-3 -15.2,-5.4 -23.1,-7.2 -7.8,-1.8 -15.8,-3 -23.9,-3.5 -8.2,-0.6 -16.3,-0.6 -24.5,0.1 -7.5,1 -17.3,2.6 -24.6,4.2 -8.2,2 -16.3,4.8 -24.2,8.2 h -0.1 c -2.3,1 -114.1,49.3 -249.5,107.8 -134,57.8 -241,104 -241,104 -3.5,1.7 -8.3,3.7 -11.6,5.6 -6.5,3.8 -15.2,9 -21.3,13.6 -14,10.6 -23.1,21.5 -26.5,25.6 -4.2,5 -12.3,15.7 -19.5,30.5 -3.2,6.5 -6.5,15.6 -8.9,22.5 -1.2,3.4 -2.2,8.1 -3.2,11.6 -1.8,7.9 -3,15.9 -3.6,24 -0.2,7.4 -0.4,17.2 0.2,24.5 0.7,7.5 2.6,17.3 4.2,24.6 2,8.2 4.7,16.3 8.2,24.3 z"
         id="path42790" />
    </clipPath>
    <clipPath
       clipPathUnits="userSpaceOnUse"
       id="clipPath42944">
      <path
         d="m 52035.6,4145.4 c 0,0 89.9,-38.8 202.5,-87.4 113.8,-49.2 207.6,-89.7 209.6,-90.6 v 0 c -0.5,-2.6 -2.1,-10 -4.6,-21.4 -3,-13.9 -7,-32.3 -10,-46.1 -4.2,-19.1 -9.1,-41.6 -14.7,-66.9 -5.6,-25.3 -11.8,-53.5 -18.6,-83.9 -6.8,-30.4 -14.2,-63 -21.9,-97.1 -7.8,-34.1 -15.9,-69.9 -24.4,-106.5 -8.5,-36.6 -17.3,-74.2 -26.2,-112.1 -9,-37.9 -18.2,-76.1 -27.4,-113.9 -9.2,-37.8 -18.5,-75.3 -27.7,-111.9 -9.2,-36.5 -18.4,-72.1 -27.4,-106.1 -9,-33.9 -18,-69.6 -27.1,-106.4 -9.2,-36.8 -18.5,-74.8 -28.1,-113.3 -9.7,-38.6 -19.6,-77.7 -30,-116.9 -10.3,-39.2 -21.1,-78.5 -32.5,-117.2 -11.4,-38.7 -23.3,-76.9 -36,-114.1 -12.7,-37.1 -26,-73.2 -40.3,-107.7 -14.2,-34.5 -29.3,-67.4 -45.4,-98.1 -16.1,-30.7 -33.2,-59.2 -51.4,-85.1 -18.2,-25.8 -37.6,-48.9 -58.2,-68.8 -20.7,-19.8 -42.6,-36.4 -65.9,-49.2 -15.9,-8.6 -32.4,-15.5 -49.3,-20.8 -17,-5.3 -34.4,-9.1 -51.9,-11.5 -17.5,-2.5 -35.2,-3.7 -52.8,-3.9 -17.6,-0.2 -35,0.6 -52.1,2.2 -17.1,1.6 -33.8,4 -49.9,6.8 -16,2.8 -31.4,6.2 -45.9,9.7 -14.4,3.6 -28,7.4 -40.3,11.1 -12.4,3.8 -23.6,7.5 -33.3,10.9 -7.3,2.7 -17.1,6.4 -24.4,9.2 -6.5,2.6 -11.3,4.6 -14.1,5.8 -18.2,8 -31.1,14.6 -37.2,17.8 -12.7,6.6 -27,14.1 -48.1,26.9 -40.9,24.8 -67.8,46.4 -76.6,53.5 -31.9,25.6 -52.9,48.5 -56.8,52.8 -10.7,11.8 -23.9,28.4 -33.4,41.1 -4.8,6.4 -10.2,15.6 -14.5,22.3 -8.7,13.4 -18,32.8 -23.2,47.9 -6.5,19.1 -13.1,45.4 -15.4,65.4 -1.5,12.5 -2.9,29.4 -2.1,41.9 1.7,27 5.9,62.9 10.2,89.6 6.3,31 15.3,63 26.6,95.8 11.4,30.3 27,70.7 40.3,100.3 7,15.5 16.5,36.1 24.3,51.3 16,31.5 37.5,73.3 54.9,104 19.5,34.5 43.7,77.3 92.9,156.3 31.1,50 58.6,92.6 96.6,151.6 18.4,28.7 43.1,66.9 61.4,95.7 8.6,13.6 20,31.9 28.7,45.6 17.4,27.8 40.7,64.9 58.4,92.6 18.6,29.2 43.6,67.9 62.5,96.9 50.3,77.4 89.6,136.7 127.7,194 20.9,31.3 41.3,61.7 60.8,90.8 33.2,49.3 59.5,88.2 104,153.6 27.7,40.7 53.9,78.9 77.7,113.5 z"
         id="path42942" />
    </clipPath>
    <clipPath
       clipPathUnits="userSpaceOnUse"
       id="clipPath43144">
      <path
         d="m 51628.7,4782.5 c 0,0 340.7,-147.1 767.3,-331.3 431.2,-186.2 786.9,-339.8 794.4,-343.1 0.1,0 0.2,0 0.2,0 6.7,-3 13.1,-6.4 19.1,-10.2 6,-3.8 11.6,-8.1 16.8,-12.8 5.2,-4.6 10,-9.6 14.3,-15 4.4,-5.3 8.3,-10.9 11.8,-16.8 3.4,-5.9 6.4,-12 8.9,-18.4 2.6,-6.3 4.6,-12.8 6.1,-19.5 1.5,-6.7 2.5,-13.4 3,-20.3 0.5,-6.9 0.5,-13.8 -0.1,-20.7 -0.6,-7 -1.8,-14 -3.5,-20.9 -1.8,-6.9 -4.1,-13.7 -7,-20.5 -2.9,-6.7 -6.3,-13.1 -10.1,-19.1 -3.9,-6 -8.2,-11.6 -12.8,-16.8 -4.6,-5.2 -9.7,-10 -15,-14.4 -5.3,-4.3 -11,-8.2 -16.8,-11.7 -5.9,-3.5 -12.1,-6.4 -18.4,-9 -6.4,-2.5 -12.9,-4.5 -19.5,-6 -6.7,-1.6 -13.5,-2.6 -20.3,-3.1 -6.9,-0.4 -13.8,-0.4 -20.8,0.2 -6.9,0.6 -13.9,1.8 -20.8,3.5 -6.9,1.7 -13.8,4 -20.5,7 h -0.1 c -7.6,3.3 -363.3,156.9 -794.5,343.1 -426.6,184.2 -767.3,331.3 -767.3,331.3 -5.9,2.8 -13.7,6.7 -19.2,10.2 -5.3,3.4 -12.2,8.4 -16.8,12.7 -4.5,4.3 -10.5,10.1 -14.3,15 -1.9,2.5 -4.5,5.6 -6.2,8.2 -3.3,5.2 -7.6,12.2 -10.4,17.7 -2.7,5.5 -5.5,13.2 -7.5,19 -1,2.9 -1.9,6.9 -2.7,9.9 -1.6,5.9 -2.3,14.2 -3,20.3 -0.6,6.2 -0.4,14.5 0.2,20.7 0.5,6.3 2.2,14.6 3.5,20.8 1.7,6.9 4,13.8 6.9,20.6 v 0 c 2.8,5.8 6.5,13.8 10.2,19.1 1.8,2.6 4,6.2 6.1,8.7 3.9,4.8 9.4,11.2 13.9,15.6 6.8,6.6 21.5,19 43,27.5 21.4,8.6 40.6,9.6 50.1,9.5 6.3,-0.1 14.6,-1.1 20.9,-1.9 3.1,-0.4 7.2,-1.5 10.3,-2.1 6.4,-1.4 14.5,-4.7 20.6,-7 z"
         id="path43142" />
    </clipPath>
    <clipPath
       clipPathUnits="userSpaceOnUse"
       id="clipPath43328">
      <path
         d="m 51996.4,4162.3 c 0,0 0,0 0.1,0 -79.8,34.4 -116.5,127 -82.1,206.7 v 0.1 c -3.5,-8 -6.2,-16.1 -8.2,-24.3 -1.6,-7.3 -3.5,-17.1 -4.2,-24.6 -0.6,-7.3 -0.4,-17.1 -0.2,-24.5 0.6,-8.1 1.8,-16.1 3.6,-24 1,-3.5 2,-8.2 3.2,-11.6 2.4,-6.9 5.7,-16 8.9,-22.5 7.2,-14.8 15.3,-25.5 19.5,-30.5 3.4,-4.1 12.5,-15 26.5,-25.6 6.1,-4.6 14.8,-9.8 21.3,-13.6 3.3,-1.9 8.1,-3.9 11.6,-5.6 z"
         id="path43326" />
    </clipPath>
    <clipPath
       clipPathUnits="userSpaceOnUse"
       id="clipPath43484">
      <path
         d="m 51544.5,3404 c -8.6,-13.7 -20.1,-32 -28.7,-45.6 -18.3,-28.8 -43,-67 -61.4,-95.7 -53.9,-83.6 -109.5,-170 -159.5,-255.6 -48.3,-82.5 -75.5,-136.8 -84.9,-156.3 -14.7,-30.2 -33.5,-70.8 -45.9,-101.9 -6,-14.8 -13.1,-34.8 -18.7,-49.7 -11.3,-32.8 -20.3,-64.8 -26.6,-95.8 -4.3,-26.7 -8.5,-62.6 -10.2,-89.6 -0.8,-12.5 0.6,-29.4 2.1,-41.9 2.3,-20 8.9,-46.3 15.4,-65.4 5.2,-15.1 14.5,-34.5 23.2,-47.9 4.3,-6.7 9.7,-15.9 14.5,-22.3 9.5,-12.7 22.7,-29.3 33.4,-41.1 3.9,-4.3 24.9,-27.2 56.8,-52.8 11.4,-9.2 27.1,-20.8 39.1,-29.2 11,-7.7 26,-17.3 37.5,-24.3 21.1,-12.8 35.4,-20.3 48.1,-26.9 6.1,-3.2 19,-9.8 37.2,-17.8 -27.7,11.9 -252.4,113.4 -297.9,287.9 -67,257.4 240.9,673.5 426.5,971.9 185.6,298.3 475.9,719.2 491.2,741.4 -0.1,0 -0.1,0 -0.1,0 -8.8,-12.9 -35.9,-52.1 -77.7,-113.5 -14.5,-21.4 -33.8,-49.8 -48.3,-71.1 -32,-47.3 -55.7,-82.5 -55.7,-82.5 -19.5,-29.1 -39.9,-59.5 -60.8,-90.8 -38.1,-57.3 -77.4,-116.6 -127.7,-194 -18.9,-29 -43.9,-67.7 -62.5,-96.9 -17.7,-27.7 -41,-64.8 -58.4,-92.6 z"
         id="path43482" />
    </clipPath>
    <clipPath
       clipPathUnits="userSpaceOnUse"
       id="clipPath43584">
      <path
         d="m 51453.6,4713.1 c -2.9,-6.8 -5.2,-13.7 -6.9,-20.6 -1.3,-6.2 -3,-14.5 -3.5,-20.8 -0.6,-6.2 -0.8,-14.5 -0.2,-20.7 0.7,-6.1 1.4,-14.4 3,-20.3 0.8,-3 1.7,-7 2.7,-9.9 2,-5.8 4.8,-13.5 7.5,-19 2.8,-5.5 7.1,-12.5 10.4,-17.7 1.7,-2.6 4.3,-5.7 6.2,-8.2 3.8,-4.9 9.8,-10.7 14.3,-15 4.6,-4.3 11.5,-9.3 16.8,-12.7 5.5,-3.5 13.3,-7.4 19.2,-10.2 0,0 0,0 0.1,0 -67.5,29.1 -98.6,107.5 -69.4,175 29.1,67.5 107.5,98.6 175,69.5 -0.1,0 -0.1,0 -0.1,0 -6.1,2.3 -14.2,5.6 -20.6,7 -3.1,0.6 -7.2,1.7 -10.3,2.1 -6.3,0.8 -14.6,1.8 -20.9,1.9 -9.5,0.1 -28.7,-0.9 -50.1,-9.5 -21.5,-8.5 -36.2,-20.9 -43,-27.5 -4.5,-4.4 -10,-10.8 -13.9,-15.6 -2.1,-2.5 -4.3,-6.1 -6.1,-8.7 -3.7,-5.3 -7.4,-13.3 -10.2,-19.1 z"
         id="path43582" />
    </clipPath>
    <clipPath
       clipPathUnits="userSpaceOnUse"
       id="clipPath43636">
      <path
         d="m 52447.7,3967.4 c -0.5,-2.6 -2.1,-10 -4.6,-21.4 v 0 c -3,-13.9 -7,-32.3 -10,-46.1 -4.2,-19.1 -9.1,-41.6 -14.7,-66.9 -5.6,-25.3 -11.8,-53.5 -18.6,-83.9 -6.8,-30.4 -14.2,-63 -21.9,-97.1 -7.8,-34.1 -15.9,-69.9 -24.4,-106.5 -8.5,-36.6 -17.3,-74.2 -26.2,-112.1 -9,-37.9 -18.2,-76.1 -27.4,-113.9 -9.2,-37.8 -18.5,-75.3 -27.7,-111.9 -9.2,-36.5 -18.4,-72.1 -27.4,-106.1 -9,-33.9 -18,-69.6 -27.1,-106.4 -9.2,-36.8 -18.5,-74.8 -28.1,-113.3 -9.7,-38.6 -19.6,-77.7 -30,-116.9 -10.3,-39.2 -21.1,-78.5 -32.5,-117.2 -11.4,-38.7 -23.3,-76.9 -36,-114.1 -12.7,-37.1 -26,-73.2 -40.3,-107.7 -14.2,-34.5 -29.3,-67.4 -45.4,-98.1 -16.1,-30.7 -33.2,-59.2 -51.4,-85.1 -18.2,-25.8 -37.6,-48.9 -58.2,-68.8 -20.7,-19.8 -42.6,-36.4 -65.9,-49.2 -15.9,-8.6 -32.4,-15.5 -49.3,-20.8 -17,-5.3 -34.4,-9.1 -51.9,-11.5 -17.5,-2.5 -35.2,-3.7 -52.8,-3.9 -17.6,-0.2 -35,0.6 -52.1,2.2 -17.1,1.6 -33.8,4 -49.9,6.8 -16,2.8 -31.4,6.2 -45.9,9.7 -14.4,3.6 -28,7.4 -40.3,11.1 -12.4,3.8 -23.6,7.5 -33.3,10.9 v 0 c -7.3,2.7 -17.1,6.4 -24.4,9.2 -6.5,2.6 -11.3,4.6 -14.1,5.8 -27.7,11.9 -252.4,113.4 -297.9,287.9 -67,257.4 240.9,673.5 426.5,971.9 185.6,298.3 475.9,719.2 491.2,741.4 2,-0.9 95.8,-41.4 209.6,-90.5 112.5,-48.7 202.4,-87.5 202.4,-87.5 z"
         id="path43634" />
    </clipPath>
    <clipPath
       clipPathUnits="userSpaceOnUse"
       id="clipPath43832">
      <path
         d="m 52693.7,4032.5 c -3.5,-7.9 -7.5,-15.5 -12,-22.6 -4.6,-7.1 -9.6,-13.7 -15.1,-19.8 -5.5,-6.2 -11.4,-11.8 -17.7,-17 -6.3,-5.1 -12.9,-9.7 -19.9,-13.8 -1.4,-3.3 -7.4,-4.1 -10.7,-5.7 -3.2,-1.6 -7.7,-3.4 -11,-4.9 -7.5,-3 -15.2,-5.4 -23.1,-7.2 -7.8,-1.8 -15.8,-3 -23.9,-3.5 -8.2,-0.6 -16.3,-0.6 -24.5,0.1 v 0 c -7.5,1 -17.3,2.6 -24.6,4.2 -8.2,2 -16.3,4.8 -24.2,8.2 0,0 -107.1,46.2 -241,104.1 -135.5,58.4 -247.2,106.7 -249.5,107.7 -79.8,34.4 -116.5,127 -82.1,206.7 3.8,-1.6 181.3,-78.2 396.4,-171.1 212.9,-92 382.9,-165.4 382.9,-165.4 z"
         id="path43830" />
    </clipPath>
    <clipPath
       clipPathUnits="userSpaceOnUse"
       id="clipPath44032">
      <path
         d="m 53190.6,4108.1 c 6.7,-3 13.1,-6.4 19.1,-10.2 6,-3.8 11.6,-8.1 16.8,-12.8 5.2,-4.6 10,-9.6 14.3,-15 4.4,-5.3 8.3,-10.9 11.8,-16.8 3.4,-5.9 6.4,-12 8.9,-18.4 2.6,-6.3 4.6,-12.8 6.1,-19.5 1.5,-6.7 2.5,-13.4 3,-20.3 0.5,-6.9 0.5,-13.8 -0.1,-20.7 -0.6,-7 -1.8,-14 -3.5,-20.9 -1.8,-6.9 -4.1,-13.7 -7,-20.5 -2.9,-6.7 -6.3,-13.1 -10.1,-19.1 -3.9,-6 -8.2,-11.6 -12.8,-16.8 -4.6,-5.2 -9.7,-10 -15,-14.4 -5.3,-4.3 -11,-8.2 -16.8,-11.7 -5.9,-3.5 -12.1,-6.4 -18.4,-9 -6.4,-2.5 -12.9,-4.5 -19.5,-6 -6.7,-1.6 -13.5,-2.6 -20.3,-3.1 -6.9,-0.4 -13.8,-0.4 -20.8,0.2 -6.9,0.6 -13.9,1.8 -20.8,3.5 -6.9,1.7 -13.8,4 -20.5,7 0,0 -340.7,147.1 -767.3,331.3 -431.3,186.2 -787,339.8 -794.5,343.1 -67.5,29.1 -98.6,107.5 -69.4,175 29.1,67.5 107.5,98.6 175,69.5 7.5,-3.3 363.2,-156.9 794.4,-343.1 426.6,-184.2 767.4,-331.3 767.4,-331.3 z"
         id="path44030" />
    </clipPath>
    <clipPath
       clipPathUnits="userSpaceOnUse"
       id="clipPath44216">
      <path
         d="m 39955.9,4710.7 -3874.3,8971.9 -1229.4,-530.9 3874.2,-8971.9 z"
         id="path44214" />
    </clipPath>
    <clipPath
       clipPathUnits="userSpaceOnUse"
       id="clipPath45256">
      <path
         d="m 35751,13830 c 0,0 -170,-73.5 -382.9,-165.4 -215.2,-92.9 -392.6,-169.5 -396.4,-171.2 v 0 c -3.5,8 -6.2,16.1 -8.3,24.3 -2,8.1 -3.4,16.3 -4.1,24.5 -0.7,8.2 -0.7,16.4 -0.2,24.5 0.6,8.2 1.8,16.2 3.6,24 1.9,7 4.8,16.3 7.2,23.1 2.9,7.5 6.5,14.7 10.6,21.7 4.1,6.9 8.7,13.6 13.8,19.9 5.2,6.3 10.8,12.2 17,17.7 5.7,4.8 13.7,10.8 19.8,15.1 7.1,4.5 14.6,8.5 22.6,12 v 0 c 2.4,1 114.1,49.2 249.6,107.7 133.9,57.9 240.9,104.1 240.9,104.1 3.7,1.4 8.4,3.5 12.1,4.6 7.2,2.2 17,4.9 24.4,6.2 17.3,2.9 31.5,2.1 36.8,1.7 6.6,-0.4 19.9,-1.8 35.7,-6.7 6.9,-2.1 15.8,-6 22.4,-8.9 3.3,-1.5 7.5,-4 10.7,-5.7 6.9,-4.1 13.6,-8.7 19.9,-13.9 5.5,-4.8 12.8,-11.4 17.7,-16.9 5,-5.6 10.8,-13.7 15.1,-19.9 4.5,-7 8.5,-14.6 12,-22.5 z"
         id="path45254" />
    </clipPath>
    <clipPath
       clipPathUnits="userSpaceOnUse"
       id="clipPath45408">
      <path
         d="m 35505,13895 c 0,0 -89.9,-38.8 -202.4,-87.4 -113.8,-49.1 -207.7,-89.6 -209.6,-90.5 -0.1,0 -0.1,0 -0.1,0 -1.5,2.2 -5.8,8.4 -12.4,18.1 -8,11.6 -18.7,27.2 -26.7,38.9 -11,16 -24,35.1 -38.6,56.5 -14.6,21.5 -30.9,45.3 -48.3,71.1 -17.5,25.8 -36.1,53.5 -55.7,82.5 -19.5,29.1 -39.9,59.5 -60.8,90.8 -20.8,31.3 -42.2,63.5 -63.6,96 -21.4,32.5 -42.9,65.3 -64.2,97.9 -21.2,32.7 -42.1,65.2 -62.4,96.9 -20.3,31.8 -39.9,62.9 -58.5,92.7 -18.5,29.8 -38.3,60.9 -58.8,92.8 -20.5,31.9 -41.7,64.7 -63.2,98.1 -21.5,33.5 -43.2,67.6 -64.6,102 -21.4,34.4 -42.6,69.1 -63,104 -20.4,34.8 -40,69.7 -58.3,104.4 -18.4,34.7 -35.5,69.2 -50.8,103.2 -15.4,34 -28.9,67.5 -40.3,100.3 -11.3,32.8 -20.3,64.8 -26.6,95.8 -6.3,31 -9.9,60.9 -10.2,89.5 -0.3,28.7 2.7,56 9.4,81.7 4.5,17.5 10.9,34.2 18.6,50.2 7.8,16 16.9,31.2 27.2,45.7 10.2,14.4 21.4,28.1 33.4,41.1 11.9,12.9 24.5,25 37.3,36.4 12.9,11.3 26.1,21.9 39.1,31.6 13.1,9.7 26.1,18.7 38.6,26.8 12.5,8 24.5,15.3 35.8,21.7 11.2,6.4 21.5,12 30.7,16.7 7,3.5 16.3,8.2 23.4,11.6 6.3,2.9 11.1,5 13.8,6.2 18.4,7.8 32,12.7 38.5,14.9 13.5,4.7 28.8,10 52.6,16.6 46.1,12.7 80.3,17.5 91.5,19 40.5,5.7 71.6,5.3 77.4,5.2 15.9,-0.4 37,-2.2 52.8,-3.9 7.9,-0.9 18.3,-3.3 26.1,-4.7 15.8,-2.9 36.3,-9.4 50.8,-16 18.4,-8.4 42,-21.6 58.2,-33.6 10.1,-7.5 23.3,-18.1 31.9,-27.3 18.5,-19.7 41.8,-47.3 58.3,-68.8 18.2,-25.8 35.3,-54.3 51.4,-85.1 14.3,-29 33,-68.1 45.4,-98 6.5,-15.8 15,-36.8 20.7,-52.9 11.9,-33.2 27.7,-77.6 38.1,-111.3 11.7,-37.8 26.2,-84.8 50,-174.8 15.1,-56.9 27.3,-106.1 44.2,-174.2 8.2,-33.1 19.1,-77.3 27.5,-110.3 4,-15.7 9.5,-36.5 13.5,-52.2 8.3,-31.8 19.4,-74.2 27.4,-106 8.5,-33.6 19.5,-78.3 27.7,-111.9 21.9,-89.7 38,-159 53.6,-226 8.4,-36.7 16.6,-72.4 24.4,-106.5 13.1,-58 23.5,-103.8 40.5,-181 10.6,-48.2 20.5,-93.4 29.3,-134.5 z"
         id="path45406" />
    </clipPath>
    <clipPath
       clipPathUnits="userSpaceOnUse"
       id="clipPath45608">
      <path
         d="m 36247.8,13754.4 c 0,0 -340.7,-147.1 -767.3,-331.3 -431.2,-186.2 -786.9,-339.8 -794.4,-343.1 -0.1,0 -0.2,0 -0.2,0 -6.7,-2.9 -13.6,-5.3 -20.5,-7 -6.9,-1.7 -13.8,-2.9 -20.8,-3.5 -6.9,-0.6 -13.9,-0.6 -20.7,-0.2 -6.9,0.5 -13.7,1.5 -20.3,3.1 -6.7,1.5 -13.2,3.5 -19.6,6 -6.3,2.6 -12.4,5.6 -18.3,9 -5.9,3.5 -11.5,7.4 -16.9,11.7 -5.3,4.4 -10.3,9.2 -15,14.4 -4.6,5.2 -8.9,10.8 -12.7,16.8 -3.9,6 -7.3,12.4 -10.2,19.1 -2.9,6.8 -5.2,13.6 -6.9,20.5 -1.8,7 -2.9,13.9 -3.5,20.9 -0.6,6.9 -0.7,13.8 -0.2,20.7 0.5,6.9 1.5,13.6 3,20.3 1.5,6.7 3.6,13.2 6.1,19.5 2.5,6.4 5.5,12.5 9,18.4 3.4,5.9 7.3,11.5 11.7,16.9 4.3,5.3 9.1,10.3 14.3,14.9 5.2,4.7 10.8,9 16.8,12.8 6,3.8 12.4,7.2 19.2,10.2 0,0 0,0 0.1,0 7.5,3.3 363.2,156.9 794.5,343.1 426.5,184.2 767.3,331.3 767.3,331.3 6,2.3 14.2,5.4 20.5,7 6.1,1.5 14.5,3.1 20.8,3.5 6.2,0.3 14.6,0.8 20.7,0.1 3.1,-0.3 7.2,-0.5 10.3,-1.1 6,-1.1 14.1,-2.8 19.9,-4.6 5.9,-1.7 13.4,-5 19,-7.5 2.8,-1.2 6.3,-3.4 9,-4.8 5.5,-2.9 12,-8 16.9,-11.8 4.9,-3.7 10.8,-9.6 15,-14.3 4.2,-4.7 9.1,-11.6 12.7,-16.8 3.9,-6 7.3,-12.4 10.2,-19.1 v 0 c 2.3,-6.1 5.6,-14.2 7,-20.6 0.6,-3.1 1.7,-7.2 2.1,-10.4 0.8,-6.2 1.7,-14.5 1.8,-20.8 0.2,-9.5 -0.8,-28.7 -9.4,-50.2 -8.5,-21.4 -20.9,-36.1 -27.5,-42.9 -4.4,-4.5 -10.8,-10 -15.6,-13.9 -2.5,-2.1 -6.1,-4.3 -8.7,-6.1 -5.4,-3.7 -13.3,-7.4 -19.2,-10.2 z"
         id="path45606" />
    </clipPath>
    <clipPath
       clipPathUnits="userSpaceOnUse"
       id="clipPath45792">
      <path
         d="m 35544.2,13912 v 0 c 79.7,34.4 172.3,-2.3 206.7,-82.1 0.1,0 0.1,0.1 0.1,0.1 -3.5,7.9 -7.5,15.5 -12,22.5 -4.3,6.2 -10.1,14.3 -15.1,19.9 -4.9,5.5 -12.2,12.1 -17.7,16.9 -6.3,5.2 -13,9.8 -19.9,13.9 -3.2,1.7 -7.4,4.2 -10.7,5.7 -6.6,2.9 -15.5,6.8 -22.4,8.9 -15.8,4.9 -29.1,6.3 -35.7,6.7 -5.3,0.4 -19.5,1.2 -36.8,-1.7 -7.4,-1.3 -17.2,-4 -24.4,-6.2 -3.7,-1.1 -8.4,-3.2 -12.1,-4.6 z"
         id="path45790" />
    </clipPath>
    <clipPath
       clipPathUnits="userSpaceOnUse"
       id="clipPath45948">
      <path
         d="m 35302.1,14760.9 c -4,15.7 -9.5,36.5 -13.5,52.2 -8.4,33 -19.3,77.2 -27.5,110.3 -24,96.5 -48.7,196.3 -76.7,291.4 -27,91.6 -47.8,148.6 -55.6,168.9 -11.9,31.4 -28.6,72.9 -42.7,103.3 -6.7,14.5 -16.4,33.4 -23.4,47.6 -16.1,30.8 -33.2,59.3 -51.4,85.1 -16.5,21.5 -39.8,49.1 -58.3,68.8 -8.6,9.2 -21.8,19.8 -31.9,27.3 -16.2,12 -39.8,25.2 -58.2,33.6 -14.5,6.6 -35,13.1 -50.8,16 -7.8,1.4 -18.2,3.8 -26.1,4.7 -15.8,1.7 -36.9,3.5 -52.8,3.9 -5.8,0.1 -36.9,0.5 -77.4,-5.2 -14.5,-2 -33.8,-5.4 -48.1,-8.4 -13.1,-2.7 -30.5,-7.1 -43.4,-10.6 -23.8,-6.6 -39.1,-11.9 -52.6,-16.6 -6.5,-2.2 -20.1,-7.1 -38.5,-14.9 27.7,12 255.7,106 413.9,19.4 233.3,-127.7 325,-637.1 415,-976.8 89.9,-339.7 197.2,-839.6 202.9,-865.9 v 0 c -3.3,15.4 -13.3,61.9 -29.3,134.5 -5.6,25.2 -13,58.7 -18.6,83.9 -12.5,55.7 -21.9,97.1 -21.9,97.1 -7.8,34.1 -16,69.8 -24.4,106.5 -15.6,67 -31.7,136.3 -53.6,226 -8.2,33.6 -19.2,78.3 -27.7,111.9 -8,31.8 -19.1,74.2 -27.4,106 z"
         id="path45946" />
    </clipPath>
    <clipPath
       clipPathUnits="userSpaceOnUse"
       id="clipPath46048">
      <path
         d="m 36317.3,13929.5 c -2.9,6.7 -6.3,13.1 -10.2,19.1 -3.6,5.2 -8.5,12.1 -12.7,16.8 -4.2,4.7 -10.1,10.6 -15,14.3 -4.9,3.8 -11.4,8.9 -16.9,11.8 -2.7,1.4 -6.2,3.6 -9,4.8 -5.6,2.5 -13.1,5.8 -19,7.5 -5.8,1.8 -13.9,3.5 -19.9,4.6 -3.1,0.6 -7.2,0.8 -10.3,1.1 -6.1,0.7 -14.5,0.2 -20.7,-0.1 -6.3,-0.4 -14.7,-2 -20.8,-3.5 -6.3,-1.6 -14.5,-4.7 -20.5,-7 0,0 -0.1,0 -0.2,0 67.5,29.1 145.9,-2 175.1,-69.5 29.1,-67.5 -2,-145.9 -69.5,-175 0.1,0 0.1,0 0.1,0 5.9,2.8 13.8,6.5 19.2,10.2 2.6,1.8 6.2,4 8.7,6.1 4.8,3.9 11.2,9.4 15.6,13.9 6.6,6.8 19,21.5 27.5,42.9 8.6,21.5 9.6,40.7 9.4,50.2 -0.1,6.3 -1,14.6 -1.8,20.8 -0.4,3.2 -1.5,7.3 -2.1,10.4 -1.4,6.4 -4.7,14.5 -7,20.6 z"
         id="path46046" />
    </clipPath>
    <clipPath
       clipPathUnits="userSpaceOnUse"
       id="clipPath46100">
      <path
         d="m 35092.9,13717.1 c -1.5,2.2 -5.8,8.4 -12.4,18.1 v 0 c -8,11.6 -18.7,27.2 -26.7,38.9 -11,16 -24,35.1 -38.6,56.5 -14.6,21.5 -30.9,45.3 -48.3,71.1 -17.5,25.8 -36.1,53.5 -55.7,82.5 -19.5,29.1 -39.9,59.5 -60.8,90.8 -20.8,31.3 -42.2,63.5 -63.6,96 -21.4,32.5 -42.9,65.3 -64.2,97.9 -21.2,32.7 -42.1,65.2 -62.4,96.9 -20.3,31.8 -39.9,62.9 -58.5,92.7 -18.5,29.8 -38.3,60.9 -58.8,92.8 -20.5,31.9 -41.7,64.7 -63.2,98.1 -21.5,33.5 -43.2,67.6 -64.6,102 -21.4,34.4 -42.6,69.1 -63,104 -20.4,34.8 -40,69.7 -58.3,104.4 -18.4,34.7 -35.5,69.2 -50.8,103.2 -15.4,34 -28.9,67.5 -40.3,100.3 -11.3,32.8 -20.3,64.8 -26.6,95.8 -6.3,31 -9.9,60.9 -10.2,89.5 -0.3,28.7 2.7,56 9.4,81.7 4.5,17.5 10.9,34.2 18.6,50.2 7.8,16 16.9,31.2 27.2,45.7 10.2,14.4 21.4,28.1 33.4,41.1 11.9,12.9 24.5,25 37.3,36.4 12.9,11.3 26.1,21.9 39.1,31.6 13.1,9.7 26.1,18.7 38.6,26.8 12.5,8 24.5,15.3 35.8,21.7 11.2,6.4 21.5,12 30.7,16.7 v 0 c 7,3.5 16.3,8.2 23.4,11.6 6.3,2.9 11.1,5 13.8,6.2 27.7,12 255.7,106 413.9,19.4 233.3,-127.7 325,-637.1 415,-976.8 89.9,-339.7 197.2,-839.6 202.9,-865.9 -2,-0.8 -95.8,-41.3 -209.6,-90.5 -112.6,-48.6 -202.5,-87.4 -202.5,-87.4 z"
         id="path46098" />
    </clipPath>
    <clipPath
       clipPathUnits="userSpaceOnUse"
       id="clipPath46296">
      <path
         d="m 34971.7,13493.4 c -3.5,8 -6.2,16.1 -8.3,24.3 -2,8.1 -3.4,16.3 -4.1,24.5 -0.7,8.2 -0.7,16.4 -0.2,24.5 0.6,8.2 1.8,16.2 3.6,24 -1.4,3.4 2.1,8.2 3.1,11.7 1.1,3.5 2.9,8 4.1,11.4 2.9,7.5 6.5,14.7 10.6,21.7 4.1,6.9 8.7,13.6 13.8,19.9 5.2,6.3 10.8,12.2 17,17.7 v 0 c 5.7,4.8 13.7,10.8 19.8,15.1 7.1,4.5 14.6,8.5 22.6,12 0,0 107,46.2 241,104 135.4,58.5 247.1,106.7 249.5,107.8 79.7,34.4 172.3,-2.3 206.7,-82.1 -3.7,-1.6 -181.2,-78.2 -396.4,-171.2 -212.8,-91.9 -382.8,-165.3 -382.8,-165.3 z"
         id="path46294" />
    </clipPath>
    <clipPath
       clipPathUnits="userSpaceOnUse"
       id="clipPath46496">
      <path
         d="m 34685.9,13080 c -6.7,-2.9 -13.6,-5.3 -20.5,-7 -6.9,-1.7 -13.8,-2.9 -20.8,-3.5 -6.9,-0.6 -13.9,-0.6 -20.7,-0.2 -6.9,0.5 -13.7,1.5 -20.3,3.1 -6.7,1.5 -13.2,3.5 -19.6,6 -6.3,2.6 -12.4,5.6 -18.3,9 -5.9,3.5 -11.5,7.4 -16.9,11.7 -5.3,4.4 -10.3,9.2 -15,14.4 -4.6,5.2 -8.9,10.8 -12.7,16.8 -3.9,6 -7.3,12.4 -10.2,19.1 -2.9,6.8 -5.2,13.6 -6.9,20.5 -1.8,7 -2.9,13.9 -3.5,20.9 -0.6,6.9 -0.7,13.8 -0.2,20.7 0.5,6.9 1.5,13.6 3,20.3 1.5,6.7 3.6,13.2 6.1,19.5 2.5,6.4 5.5,12.5 9,18.4 3.4,5.9 7.3,11.5 11.7,16.9 4.3,5.3 9.1,10.3 14.3,14.9 5.2,4.7 10.8,9 16.8,12.8 6,3.8 12.4,7.2 19.2,10.2 0,0 340.7,147.1 767.3,331.3 431.2,186.2 786.9,339.8 794.4,343.1 67.5,29.1 145.9,-2 175.1,-69.5 29.1,-67.5 -2,-145.9 -69.5,-175 -7.5,-3.3 -363.2,-156.9 -794.4,-343.1 -426.6,-184.2 -767.4,-331.3 -767.4,-331.3 z"
         id="path46494" />
    </clipPath>
    <clipPath
       clipPathUnits="userSpaceOnUse"
       id="clipPath46680">
      <path
         d="m 39836.4,4369.1 c 0,0 -170,-73.5 -382.9,-165.4 -215.1,-92.9 -392.6,-169.5 -396.4,-171.1 0,-0.1 0,-0.1 0,-0.1 3.4,-7.9 7.4,-15.5 12,-22.6 4.5,-7.1 9.6,-13.7 15.1,-19.8 5.4,-6.2 11.4,-11.8 17.6,-17 6.3,-5.1 13,-9.7 20,-13.8 6.3,-3.4 15,-7.7 21.7,-10.6 7.4,-3 15.2,-5.4 23,-7.2 7.9,-1.8 15.9,-3 24,-3.5 8.1,-0.6 16.3,-0.6 24.5,0.1 7.4,1 17.3,2.6 24.6,4.2 8.1,2 16.2,4.8 24.2,8.2 v 0 c 2.4,1 114.1,49.3 249.6,107.8 133.9,57.8 240.9,104 240.9,104 3.5,1.7 8.3,3.7 11.7,5.6 6.5,3.8 15.2,9 21.2,13.6 14,10.6 23.1,21.5 26.5,25.6 4.2,5 12.3,15.7 19.6,30.5 3.2,6.5 6.5,15.6 8.9,22.5 1.2,3.4 2.2,8.1 3.1,11.6 1.8,7.9 3,15.9 3.6,24 0.3,7.4 0.5,17.2 -0.2,24.5 -0.6,7.5 -2.6,17.3 -4.1,24.6 -2,8.2 -4.8,16.3 -8.2,24.3 z"
         id="path46678" />
    </clipPath>
    <clipPath
       clipPathUnits="userSpaceOnUse"
       id="clipPath46832">
      <path
         d="m 39715.1,4145.4 c 0,0 -89.9,-38.8 -202.4,-87.4 -113.8,-49.2 -207.7,-89.7 -209.6,-90.6 -0.1,0 -0.1,0 -0.1,0 0.6,-2.6 2.2,-10 4.7,-21.4 3,-13.9 7,-32.3 10,-46.1 4.1,-19.1 9.1,-41.6 14.7,-66.9 5.5,-25.3 11.8,-53.5 18.6,-83.9 6.8,-30.4 14.1,-63 21.9,-97.1 7.7,-34.1 15.9,-69.9 24.4,-106.5 8.5,-36.6 17.2,-74.2 26.2,-112.1 9,-37.9 18.1,-76.1 27.3,-113.9 9.2,-37.8 18.5,-75.3 27.7,-111.9 9.3,-36.5 18.4,-72.1 27.4,-106.1 9,-33.9 18,-69.6 27.2,-106.4 9.2,-36.8 18.5,-74.8 28.1,-113.3 9.6,-38.6 19.6,-77.7 29.9,-116.9 10.4,-39.2 21.2,-78.5 32.6,-117.2 11.3,-38.7 23.3,-76.9 35.9,-114.1 12.7,-37.1 26.1,-73.2 40.3,-107.7 14.3,-34.5 29.4,-67.4 45.5,-98.1 16.1,-30.7 33.2,-59.2 51.4,-85.1 18.2,-25.8 37.6,-48.9 58.2,-68.8 20.7,-19.8 42.6,-36.4 65.9,-49.2 15.8,-8.6 32.3,-15.5 49.3,-20.8 16.9,-5.3 34.3,-9.1 51.9,-11.5 17.5,-2.5 35.2,-3.7 52.8,-3.9 17.5,-0.2 35,0.6 52.1,2.2 17.1,1.6 33.8,4 49.8,6.8 16.1,2.8 31.5,6.2 45.9,9.7 14.5,3.6 28.1,7.4 40.4,11.1 12.4,3.8 23.5,7.5 33.2,10.9 7.4,2.7 17.2,6.4 24.5,9.2 6.5,2.6 11.3,4.6 14,5.8 18.2,8 31.2,14.6 37.3,17.8 12.6,6.6 26.9,14.1 48.1,26.9 40.9,24.8 67.7,46.4 76.6,53.5 31.9,25.6 52.9,48.5 56.8,52.8 10.6,11.8 23.8,28.4 33.4,41.1 4.8,6.4 10.1,15.6 14.5,22.3 8.7,13.4 18,32.8 23.2,47.9 6.5,19.1 13.1,45.4 15.4,65.4 1.4,12.5 2.8,29.4 2,41.9 -1.6,27 -5.8,62.9 -10.1,89.6 -6.3,31 -15.4,63 -26.7,95.8 -11.4,30.3 -26.9,70.7 -40.2,100.3 -7,15.5 -16.5,36.1 -24.3,51.3 -16,31.5 -37.6,73.3 -54.9,104 -19.5,34.5 -43.8,77.3 -93,156.3 -31,50 -58.5,92.6 -96.5,151.6 -18.5,28.7 -43.1,66.9 -61.4,95.7 -8.7,13.6 -20.1,31.9 -28.7,45.6 -17.5,27.8 -40.8,64.9 -58.4,92.6 -18.6,29.2 -43.6,67.9 -62.5,96.9 -50.3,77.4 -89.7,136.7 -127.8,194 -20.8,31.3 -41.2,61.7 -60.8,90.8 -33.2,49.3 -59.4,88.2 -103.9,153.6 -27.8,40.7 -53.9,78.9 -77.8,113.5 z"
         id="path46830" />
    </clipPath>
    <clipPath
       clipPathUnits="userSpaceOnUse"
       id="clipPath47032">
      <path
         d="m 40122.1,4782.5 c 0,0 -340.7,-147.1 -767.3,-331.3 -431.3,-186.2 -786.9,-339.8 -794.5,-343.1 -0.1,0 -0.1,0 -0.1,0 -6.7,-3 -13.1,-6.4 -19.1,-10.2 -6,-3.8 -11.6,-8.1 -16.8,-12.8 -5.2,-4.6 -10,-9.6 -14.4,-15 -4.3,-5.3 -8.2,-10.9 -11.7,-16.8 -3.5,-5.9 -6.5,-12 -9,-18.4 -2.5,-6.3 -4.5,-12.8 -6,-19.5 -1.6,-6.7 -2.6,-13.4 -3.1,-20.3 -0.5,-6.9 -0.4,-13.8 0.2,-20.7 0.6,-7 1.8,-14 3.5,-20.9 1.7,-6.9 4,-13.7 7,-20.5 2.9,-6.7 6.3,-13.1 10.1,-19.1 3.9,-6 8.1,-11.6 12.8,-16.8 4.6,-5.2 9.6,-10 15,-14.4 5.3,-4.3 10.9,-8.2 16.8,-11.7 5.9,-3.5 12,-6.4 18.4,-9 6.3,-2.5 12.8,-4.5 19.5,-6 6.7,-1.6 13.4,-2.6 20.3,-3.1 6.9,-0.4 13.8,-0.4 20.8,0.2 6.9,0.6 13.8,1.8 20.8,3.5 6.9,1.7 13.7,4 20.5,7 0,0 0,0 0.1,0 7.5,3.3 363.2,156.9 794.5,343.1 426.6,184.2 767.3,331.3 767.3,331.3 5.8,2.8 13.6,6.7 19.1,10.2 5.3,3.4 12.2,8.4 16.8,12.7 4.5,4.3 10.6,10.1 14.4,15 1.8,2.5 4.5,5.6 6.2,8.2 3.3,5.2 7.6,12.2 10.3,17.7 2.7,5.5 5.5,13.2 7.6,19 1,2.9 1.8,6.9 2.6,9.9 1.6,5.9 2.4,14.2 3,20.3 0.7,6.2 0.4,14.5 -0.1,20.7 -0.6,6.3 -2.2,14.6 -3.5,20.8 -1.7,6.9 -4.1,13.8 -7,20.6 v 0 c -2.8,5.8 -6.4,13.8 -10.1,19.1 -1.8,2.6 -4.1,6.2 -6.1,8.7 -4,4.8 -9.4,11.2 -13.9,15.6 -6.9,6.6 -21.5,19 -43,27.5 -21.5,8.6 -40.7,9.6 -50.2,9.5 -6.2,-0.1 -14.6,-1.1 -20.8,-1.9 -3.1,-0.4 -7.3,-1.5 -10.4,-2.1 -6.3,-1.4 -14.4,-4.7 -20.5,-7 z"
         id="path47030" />
    </clipPath>
    <clipPath
       clipPathUnits="userSpaceOnUse"
       id="clipPath47216">
      <path
         d="m 39754.3,4162.3 v 0 c 79.7,34.4 116.5,127 82,206.7 0.1,0 0.1,0.1 0.1,0.1 3.4,-8 6.2,-16.1 8.2,-24.3 1.5,-7.3 3.5,-17.1 4.1,-24.6 0.7,-7.3 0.5,-17.1 0.2,-24.5 -0.6,-8.1 -1.8,-16.1 -3.6,-24 -0.9,-3.5 -1.9,-8.2 -3.1,-11.6 -2.4,-6.9 -5.7,-16 -8.9,-22.5 -7.3,-14.8 -15.4,-25.5 -19.6,-30.5 -3.4,-4.1 -12.5,-15 -26.5,-25.6 -6,-4.6 -14.7,-9.8 -21.2,-13.6 -3.4,-1.9 -8.2,-3.9 -11.7,-5.6 z"
         id="path47214" />
    </clipPath>
    <clipPath
       clipPathUnits="userSpaceOnUse"
       id="clipPath47372">
      <path
         d="m 40206.3,3404 c 8.6,-13.7 20,-32 28.7,-45.6 18.3,-28.8 42.9,-67 61.4,-95.7 53.8,-83.6 109.5,-170 159.5,-255.6 48.2,-82.5 75.4,-136.8 84.9,-156.3 14.7,-30.2 33.4,-70.8 45.9,-101.9 5.9,-14.8 13,-34.8 18.6,-49.7 11.3,-32.8 20.4,-64.8 26.7,-95.8 4.3,-26.7 8.5,-62.6 10.1,-89.6 0.8,-12.5 -0.6,-29.4 -2,-41.9 -2.3,-20 -8.9,-46.3 -15.4,-65.4 -5.2,-15.1 -14.5,-34.5 -23.2,-47.9 -4.4,-6.7 -9.7,-15.9 -14.5,-22.3 -9.6,-12.7 -22.8,-29.3 -33.4,-41.1 -3.9,-4.3 -24.9,-27.2 -56.8,-52.8 -11.5,-9.2 -27.2,-20.8 -39.2,-29.2 -10.9,-7.7 -26,-17.3 -37.4,-24.3 -21.2,-12.8 -35.5,-20.3 -48.1,-26.9 -6.1,-3.2 -19.1,-9.8 -37.3,-17.8 27.7,11.9 252.5,113.4 297.9,287.9 67.1,257.4 -240.9,673.5 -426.4,971.9 -185.7,298.3 -475.9,719.2 -491.2,741.4 v 0 c 8.9,-12.9 35.9,-52.1 77.8,-113.5 14.5,-21.4 33.8,-49.8 48.3,-71.1 32,-47.3 55.6,-82.5 55.6,-82.5 19.6,-29.1 40,-59.5 60.8,-90.8 38.1,-57.3 77.5,-116.6 127.8,-194 18.9,-29 43.9,-67.7 62.5,-96.9 17.6,-27.7 40.9,-64.8 58.4,-92.6 z"
         id="path47370" />
    </clipPath>
    <clipPath
       clipPathUnits="userSpaceOnUse"
       id="clipPath47472">
      <path
         d="m 40297.1,4713.1 c 2.9,-6.8 5.3,-13.7 7,-20.6 1.3,-6.2 2.9,-14.5 3.5,-20.8 0.5,-6.2 0.8,-14.5 0.1,-20.7 -0.6,-6.1 -1.4,-14.4 -3,-20.3 -0.8,-3 -1.6,-7 -2.6,-9.9 -2.1,-5.8 -4.9,-13.5 -7.6,-19 -2.7,-5.5 -7,-12.5 -10.3,-17.7 -1.7,-2.6 -4.4,-5.7 -6.2,-8.2 -3.8,-4.9 -9.9,-10.7 -14.4,-15 -4.6,-4.3 -11.5,-9.3 -16.8,-12.7 -5.5,-3.5 -13.3,-7.4 -19.1,-10.2 0,0 -0.1,0 -0.2,0 67.6,29.1 98.7,107.5 69.5,175 -29.2,67.5 -107.5,98.6 -175,69.5 0.1,0 0.1,0 0.1,0 6.1,2.3 14.2,5.6 20.5,7 3.1,0.6 7.3,1.7 10.4,2.1 6.2,0.8 14.6,1.8 20.8,1.9 9.5,0.1 28.7,-0.9 50.2,-9.5 21.5,-8.5 36.1,-20.9 43,-27.5 4.5,-4.4 9.9,-10.8 13.9,-15.6 2,-2.5 4.3,-6.1 6.1,-8.7 3.7,-5.3 7.3,-13.3 10.1,-19.1 z"
         id="path47470" />
    </clipPath>
    <clipPath
       clipPathUnits="userSpaceOnUse"
       id="clipPath47524">
      <path
         d="m 39303,3967.4 c 0.6,-2.6 2.2,-10 4.7,-21.4 v 0 c 3,-13.9 7,-32.3 10,-46.1 4.1,-19.1 9.1,-41.6 14.7,-66.9 5.5,-25.3 11.8,-53.5 18.6,-83.9 6.8,-30.4 14.1,-63 21.9,-97.1 7.7,-34.1 15.9,-69.9 24.4,-106.5 8.5,-36.6 17.2,-74.2 26.2,-112.1 9,-37.9 18.1,-76.1 27.3,-113.9 9.2,-37.8 18.5,-75.3 27.7,-111.9 9.3,-36.5 18.4,-72.1 27.4,-106.1 9,-33.9 18,-69.6 27.2,-106.4 9.2,-36.8 18.5,-74.8 28.1,-113.3 9.6,-38.6 19.6,-77.7 29.9,-116.9 10.4,-39.2 21.2,-78.5 32.6,-117.2 11.3,-38.7 23.3,-76.9 35.9,-114.1 12.7,-37.1 26.1,-73.2 40.3,-107.7 14.3,-34.5 29.4,-67.4 45.5,-98.1 16.1,-30.7 33.2,-59.2 51.4,-85.1 18.2,-25.8 37.6,-48.9 58.2,-68.8 20.7,-19.8 42.6,-36.4 65.9,-49.2 15.8,-8.6 32.3,-15.5 49.3,-20.8 16.9,-5.3 34.3,-9.1 51.9,-11.5 17.5,-2.5 35.2,-3.7 52.8,-3.9 17.5,-0.2 35,0.6 52.1,2.2 17.1,1.6 33.8,4 49.8,6.8 16.1,2.8 31.5,6.2 45.9,9.7 14.5,3.6 28.1,7.4 40.4,11.1 12.4,3.8 23.5,7.5 33.2,10.9 v 0 c 7.4,2.7 17.2,6.4 24.5,9.2 6.5,2.6 11.3,4.6 14,5.8 27.7,11.9 252.5,113.4 297.9,287.9 67.1,257.4 -240.9,673.5 -426.4,971.9 -185.7,298.3 -475.9,719.2 -491.2,741.4 -2,-0.9 -95.8,-41.4 -209.6,-90.5 -112.6,-48.7 -202.5,-87.5 -202.5,-87.5 z"
         id="path47522" />
    </clipPath>
    <clipPath
       clipPathUnits="userSpaceOnUse"
       id="clipPath47720">
      <path
         d="m 39057.1,4032.5 c 3.4,-7.9 7.4,-15.5 12,-22.6 4.5,-7.1 9.6,-13.7 15.1,-19.8 5.4,-6.2 11.4,-11.8 17.6,-17 6.3,-5.1 13,-9.7 20,-13.8 1.4,-3.3 7.4,-4.1 10.6,-5.7 3.3,-1.6 7.7,-3.4 11.1,-4.9 7.4,-3 15.2,-5.4 23,-7.2 7.9,-1.8 15.9,-3 24,-3.5 8.1,-0.6 16.3,-0.6 24.5,0.1 v 0 c 7.4,1 17.3,2.6 24.6,4.2 8.1,2 16.2,4.8 24.2,8.2 0,0 107,46.2 241,104.1 135.4,58.4 247.1,106.7 249.5,107.7 79.7,34.4 116.5,127 82,206.7 -3.7,-1.6 -181.2,-78.2 -396.4,-171.1 -212.8,-92 -382.8,-165.4 -382.8,-165.4 z"
         id="path47718" />
    </clipPath>
    <clipPath
       clipPathUnits="userSpaceOnUse"
       id="clipPath47920">
      <path
         d="m 38560.2,4108.1 c -6.7,-3 -13.1,-6.4 -19.1,-10.2 -6,-3.8 -11.6,-8.1 -16.8,-12.8 -5.2,-4.6 -10,-9.6 -14.4,-15 -4.3,-5.3 -8.2,-10.9 -11.7,-16.8 -3.5,-5.9 -6.5,-12 -9,-18.4 -2.5,-6.3 -4.5,-12.8 -6,-19.5 -1.6,-6.7 -2.6,-13.4 -3.1,-20.3 -0.5,-6.9 -0.4,-13.8 0.2,-20.7 0.6,-7 1.8,-14 3.5,-20.9 1.7,-6.9 4,-13.7 7,-20.5 2.9,-6.7 6.3,-13.1 10.1,-19.1 3.9,-6 8.1,-11.6 12.8,-16.8 4.6,-5.2 9.6,-10 15,-14.4 5.3,-4.3 10.9,-8.2 16.8,-11.7 5.9,-3.5 12,-6.4 18.4,-9 6.3,-2.5 12.8,-4.5 19.5,-6 6.7,-1.6 13.4,-2.6 20.3,-3.1 6.9,-0.4 13.8,-0.4 20.8,0.2 6.9,0.6 13.8,1.8 20.8,3.5 6.9,1.7 13.7,4 20.5,7 0,0 340.7,147.1 767.3,331.3 431.2,186.2 786.9,339.8 794.4,343.1 67.6,29.1 98.7,107.5 69.5,175 -29.2,67.5 -107.5,98.6 -175,69.5 -7.6,-3.3 -363.2,-156.9 -794.5,-343.1 -426.6,-184.2 -767.3,-331.3 -767.3,-331.3 z"
         id="path47918" />
    </clipPath>
  </defs>
  <sodipodi:namedview
     id="base"
     pagecolor="#ffffff"
     bordercolor="#666666"
     borderopacity="1.0"
     inkscape:pageopacity="0.0"
     inkscape:pageshadow="2"
     inkscape:zoom="0.61513085"
     inkscape:cx="524.17379"
     inkscape:cy="271.88983"
     inkscape:document-units="mm"
     inkscape:current-layer="layer1"
     inkscape:document-rotation="0"
     showgrid="false"
     units="px"
     width="480px"
     inkscape:window-width="1252"
     inkscape:window-height="797"
     inkscape:window-x="79"
     inkscape:window-y="25"
     inkscape:window-maximized="0" />
  <metadata
     id="metadata48101">
    <rdf:RDF>
      <cc:Work
         rdf:about="">
        <dc:format>image/svg+xml</dc:format>
        <dc:type
           rdf:resource="http://purl.org/dc/dcmitype/StillImage" />
        <dc:title></dc:title>
      </cc:Work>
    </rdf:RDF>
  </metadata>
  <g
     inkscape:label="Layer 1"
     inkscape:groupmode="layer"
     id="layer1">
    <path
       style="fill:#000000;stroke-width:0.176389"
       d="m 65.359893,86.405464 c -0.731356,-0.126812 -2.156325,-1.502892 -2.40061,-2.318248 -0.486539,-1.623925 -0.17925,-2.957618 0.944269,-4.09829 l 0.803354,-0.815617 -0.05172,-1.485509 -0.05172,-1.485506 -3.571875,-0.04775 -3.571875,-0.04775 v -2.3776 -2.377596 h 8.907637 8.907639 v 2.38125 2.38125 h -3.439586 -3.43958 v 1.60814 1.608143 l 0.698611,0.677979 c 2.334281,2.265347 0.960281,6.192623 -2.242947,6.410971 -0.557318,0.03799 -1.228537,0.03175 -1.491599,-0.01386 z m -1.62837,-18.97367 c -0.370999,-0.529675 -0.351722,-0.718693 0.210484,-2.063578 l 0.485071,-1.160368 -0.04411,-5.115277 c -0.02426,-2.813404 -0.125153,-6.464654 -0.224205,-8.113892 -0.319513,-5.319916 0.317177,-10.424644 1.743475,-13.978505 0.998069,-2.486857 2.613768,-4.906975 4.50048,-6.741164 0.545449,-0.530262 0.991722,-1.026355 0.991722,-1.10243 0,-0.07608 -4.806826,-0.138317 -10.681838,-0.138317 -6.859262,0 -11.13578,-0.06921 -11.950348,-0.193414 -2.22345,-0.33902 -3.642823,-1.288902 -4.402799,-2.946473 -0.320585,-0.699226 -0.377269,-1.13233 -0.362429,-2.769141 0.01021,-1.124975 0.129837,-2.354226 0.284711,-2.9254 0.564798,-2.082942 2.095423,-4.39474 2.909728,-4.39474 0.549085,0 0.919642,0.186253 0.919642,0.462238 0,0.687164 0.922292,1.753278 1.940279,2.242842 0.781262,0.375721 0.968568,0.383151 11.90625,0.472272 10.152642,0.08272 11.19096,0.11826 12.02087,0.411398 1.490266,0.526388 2.011662,1.168179 2.431262,2.992682 0.34756,1.511252 0.34898,2.575181 0.006,4.207487 -0.34886,1.658428 -0.806995,2.408153 -2.110523,3.453808 -1.726843,1.385226 -3.354406,3.778945 -4.088966,6.013797 -0.17603,0.535566 -0.300744,1.805268 -0.357939,3.644172 -0.07949,2.555685 0.01302,4.682766 0.483243,11.112501 0.332221,4.542655 0.408943,9.004215 0.17939,10.432179 -0.533731,3.320161 -2.193266,5.338226 -5.145397,6.257031 -1.329563,0.413808 -1.31154,0.414462 -1.643663,-0.05971 z M 36.177582,66.633196 c -0.15062,-0.363802 -0.428717,-1.018645 -0.617992,-1.455208 -0.189276,-0.436562 -0.408177,-0.9525 -0.486446,-1.146529 -0.130875,-0.324433 -0.245484,-0.598562 -0.884952,-2.116667 -0.122595,-0.291042 -1.113338,-2.672292 -2.20165,-5.291667 -1.566059,-3.769225 -2.045872,-4.7625 -2.300579,-4.7625 -0.410221,0 -0.268092,-0.288531 -2.215658,4.497917 -0.690799,1.697744 -1.409218,3.423285 -1.596489,3.834537 -0.187268,0.41125 -0.34049,0.796129 -0.34049,0.855287 0,0.05916 -0.110166,0.357677 -0.244814,0.663379 -0.134646,0.305705 -0.584052,1.389261 -0.998677,2.407907 -0.414626,1.018649 -0.821097,1.940436 -0.903271,2.04842 -0.08617,0.113247 -1.025899,0.239345 -2.220418,0.297955 -1.139058,0.05589 -3.726772,0.19032 -5.750474,0.298739 -2.023705,0.108418 -3.719097,0.157488 -3.767541,0.109045 -0.11565,-0.115649 0.327499,-2.420575 1.495821,-7.780126 l 0.307363,-1.409996 1.587186,-0.226079 c 7.707316,-1.09783 11.044454,-3.259846 12.755107,-8.263585 0.924719,-2.704849 1.163243,-4.621956 1.171528,-9.41604 0.0066,-3.813649 -0.04127,-4.682352 -0.31459,-5.710273 -0.364744,-1.371741 -0.630923,-2.033319 -0.9544,-2.372118 -0.122398,-0.128196 -0.222542,-0.293335 -0.222542,-0.366974 0,-0.240681 -1.480951,-1.192045 -2.293056,-1.47306 -0.911184,-0.315301 -1.988218,-0.53778 -4.541374,-0.938095 -2.109203,-0.330706 -2.955895,-0.696607 -4.110023,-1.776157 -1.61575,-1.511345 -2.197726,-3.575203 -1.760856,-6.244514 0.231552,-1.414788 1.115506,-3.475853 2.017441,-4.703944 0.471532,-0.642048 0.636057,-0.743707 1.213234,-0.749653 0.617245,-0.0064 0.693304,0.0498 1.006055,0.742773 0.812185,1.799598 1.829209,2.283585 5.646356,2.687021 3.59851,0.380327 4.665756,0.735193 5.888542,1.95798 1.326538,1.326538 1.814321,3.246335 1.625071,6.395902 -0.06795,1.130785 -0.262212,4.278473 -0.431703,6.994862 -0.345942,5.544378 -0.256506,6.919158 0.613029,9.42316 0.508466,1.46423 1.956379,4.515397 3.061683,6.45184 3.778968,6.620587 4.723303,11.780782 2.889918,15.791583 -0.620356,1.357119 -0.663917,1.406334 -1.24467,1.406334 -0.529153,0 -0.63488,-0.07986 -0.875669,-0.661456 z M 54.902078,46.98364 c -1.316636,-0.481224 -2.370654,-2.067581 -2.377379,-3.57809 -0.01074,-2.412855 2.382718,-4.260783 4.695094,-3.624961 1.837624,0.50528 2.761248,1.745518 2.761248,3.707797 0,1.38662 -0.518914,2.360017 -1.661028,3.115836 -0.81706,0.540703 -2.47355,0.724585 -3.417935,0.379418 z"
       id="path5888" />
    <path
       style="fill:#d40000;stroke-width:0.176389"
       d="m 65.359893,86.405464 c -0.731356,-0.12681 -2.156325,-1.50289 -2.40061,-2.31824 -0.486539,-1.62393 -0.17925,-2.95762 0.944269,-4.09829 l 0.803354,-0.81562 -0.05172,-1.48551 -0.05172,-1.48551 -3.571875,-0.0478 -3.571875,-0.0477 v -2.3776 -2.377592 h 8.907637 8.907632 v 2.381252 2.38125 h -3.43958 -3.439579 v 1.60814 1.60814 l 0.698613,0.67798 c 2.334276,2.26535 0.96028,6.19262 -2.242949,6.41097 -0.557318,0.038 -1.228537,0.0318 -1.491599,-0.0139 z"
       id="path5888-7"
       sodipodi:nodetypes="csscccccccccccccccsscc" />
    <path
       style="fill:none;stroke:#d40000;stroke-width:1.28983;stroke-linecap:butt;stroke-linejoin:miter;stroke-miterlimit:4;stroke-dasharray:none;stroke-opacity:1;marker-end:url(#Arrow1Lend)"
       d="M 114.84448,44.094719 84.145131,64.167387"
       id="path5920"
       sodipodi:nodetypes="cc" />
  </g>
</svg>
