<?xml version="1.0" encoding="UTF-8" standalone="no"?>
<svg
   xmlns:dc="http://purl.org/dc/elements/1.1/"
   xmlns:cc="http://creativecommons.org/ns#"
   xmlns:rdf="http://www.w3.org/1999/02/22-rdf-syntax-ns#"
   xmlns:svg="http://www.w3.org/2000/svg"
   xmlns="http://www.w3.org/2000/svg"
   xmlns:xlink="http://www.w3.org/1999/xlink"
   xmlns:sodipodi="http://sodipodi.sourceforge.net/DTD/sodipodi-0.dtd"
   xmlns:inkscape="http://www.inkscape.org/namespaces/inkscape"
   version="1.1"
   id="svg979"
   xml:space="preserve"
   width="1461.3333"
   height="1040"
   viewBox="0 0 1461.3333 1040"
   sodipodi:docname="plaque.svg"
   inkscape:version="1.0.1 (c497b03c, 2020-09-10)"><metadata
     id="metadata985"><rdf:RDF><cc:Work
         rdf:about=""><dc:format>image/svg+xml</dc:format><dc:type
           rdf:resource="http://purl.org/dc/dcmitype/StillImage" /><dc:title></dc:title></cc:Work></rdf:RDF></metadata><defs
     id="defs983"><linearGradient
       x1="0"
       y1="0"
       x2="1"
       y2="0"
       gradientUnits="userSpaceOnUse"
       gradientTransform="matrix(2e-7,-4448.75,4448.75,2e-7,7719,9099.45)"
       spreadMethod="pad"
       id="linearGradient1015"><stop
         style="stop-opacity:1;stop-color:#462315"
         offset="0"
         id="stop993" /><stop
         style="stop-opacity:1;stop-color:#b5681d"
         offset="0.1"
         id="stop995" /><stop
         style="stop-opacity:1;stop-color:#ffffff"
         offset="0.15"
         id="stop997" /><stop
         style="stop-opacity:1;stop-color:#ed9623"
         offset="0.22"
         id="stop999" /><stop
         style="stop-opacity:1;stop-color:#9b4e1d"
         offset="0.34"
         id="stop1001" /><stop
         style="stop-opacity:1;stop-color:#e7a12f"
         offset="0.5"
         id="stop1003" /><stop
         style="stop-opacity:1;stop-color:#f9e65e"
         offset="0.66"
         id="stop1005" /><stop
         style="stop-opacity:1;stop-color:#e0c043"
         offset="0.72"
         id="stop1007" /><stop
         style="stop-opacity:1;stop-color:#ffffff"
         offset="0.77"
         id="stop1009" /><stop
         style="stop-opacity:1;stop-color:#a96e1d"
         offset="0.83"
         id="stop1011" /><stop
         style="stop-opacity:1;stop-color:#6b3818"
         offset="1"
         id="stop1013" /></linearGradient><linearGradient
       x1="0"
       y1="0"
       x2="1"
       y2="0"
       gradientUnits="userSpaceOnUse"
       gradientTransform="matrix(1e-7,-2068.48,2068.48,1e-7,7719,7328.43)"
       spreadMethod="pad"
       id="linearGradient1041"><stop
         style="stop-opacity:1;stop-color:#462315"
         offset="0"
         id="stop1019" /><stop
         style="stop-opacity:1;stop-color:#b5681d"
         offset="0.1"
         id="stop1021" /><stop
         style="stop-opacity:1;stop-color:#ffffff"
         offset="0.15"
         id="stop1023" /><stop
         style="stop-opacity:1;stop-color:#ed9623"
         offset="0.22"
         id="stop1025" /><stop
         style="stop-opacity:1;stop-color:#9b4e1d"
         offset="0.34"
         id="stop1027" /><stop
         style="stop-opacity:1;stop-color:#e7a12f"
         offset="0.5"
         id="stop1029" /><stop
         style="stop-opacity:1;stop-color:#f9e65e"
         offset="0.66"
         id="stop1031" /><stop
         style="stop-opacity:1;stop-color:#e0c043"
         offset="0.72"
         id="stop1033" /><stop
         style="stop-opacity:1;stop-color:#ffffff"
         offset="0.77"
         id="stop1035" /><stop
         style="stop-opacity:1;stop-color:#a96e1d"
         offset="0.83"
         id="stop1037" /><stop
         style="stop-opacity:1;stop-color:#6b3818"
         offset="1"
         id="stop1039" /></linearGradient><linearGradient
       x1="0"
       y1="0"
       x2="1"
       y2="0"
       gradientUnits="userSpaceOnUse"
       gradientTransform="matrix(3113.8,-2346.41,2346.41,3113.8,6162.18,7467.38)"
       spreadMethod="pad"
       id="linearGradient1067"><stop
         style="stop-opacity:1;stop-color:#462315"
         offset="0"
         id="stop1045" /><stop
         style="stop-opacity:1;stop-color:#b5681d"
         offset="0.1"
         id="stop1047" /><stop
         style="stop-opacity:1;stop-color:#ffffff"
         offset="0.15"
         id="stop1049" /><stop
         style="stop-opacity:1;stop-color:#ed9623"
         offset="0.22"
         id="stop1051" /><stop
         style="stop-opacity:1;stop-color:#9b4e1d"
         offset="0.34"
         id="stop1053" /><stop
         style="stop-opacity:1;stop-color:#e7a12f"
         offset="0.5"
         id="stop1055" /><stop
         style="stop-opacity:1;stop-color:#f9e65e"
         offset="0.66"
         id="stop1057" /><stop
         style="stop-opacity:1;stop-color:#e0c043"
         offset="0.72"
         id="stop1059" /><stop
         style="stop-opacity:1;stop-color:#ffffff"
         offset="0.77"
         id="stop1061" /><stop
         style="stop-opacity:1;stop-color:#a96e1d"
         offset="0.83"
         id="stop1063" /><stop
         style="stop-opacity:1;stop-color:#6b3818"
         offset="1"
         id="stop1065" /></linearGradient><linearGradient
       x1="0"
       y1="0"
       x2="1"
       y2="0"
       gradientUnits="userSpaceOnUse"
       gradientTransform="matrix(-6794.32,-3e-7,3e-7,-6794.32,10119.6,6294.24)"
       spreadMethod="pad"
       id="linearGradient1095"><stop
         style="stop-opacity:1;stop-color:#462315"
         offset="0"
         id="stop1071" /><stop
         style="stop-opacity:1;stop-color:#b5681d"
         offset="0.1"
         id="stop1073" /><stop
         style="stop-opacity:1;stop-color:#fcd56b"
         offset="0.15"
         id="stop1075" /><stop
         style="stop-opacity:1;stop-color:#ed9623"
         offset="0.22"
         id="stop1077" /><stop
         style="stop-opacity:1;stop-color:#9b4e1d"
         offset="0.34"
         id="stop1079" /><stop
         style="stop-opacity:1;stop-color:#e7a12f"
         offset="0.5"
         id="stop1081" /><stop
         style="stop-opacity:1;stop-color:#fcd56b"
         offset="0.577754"
         id="stop1083" /><stop
         style="stop-opacity:1;stop-color:#f9e65e"
         offset="0.66"
         id="stop1085" /><stop
         style="stop-opacity:1;stop-color:#e0c043"
         offset="0.72"
         id="stop1087" /><stop
         style="stop-opacity:1;stop-color:#fce0e3"
         offset="0.781387"
         id="stop1089" /><stop
         style="stop-opacity:1;stop-color:#a96e1d"
         offset="0.83"
         id="stop1091" /><stop
         style="stop-opacity:1;stop-color:#6b3818"
         offset="1"
         id="stop1093" /></linearGradient><linearGradient
       x1="0"
       y1="0"
       x2="1"
       y2="0"
       gradientUnits="userSpaceOnUse"
       gradientTransform="matrix(0,2092.14,2092.14,0,7799.01,2833.94)"
       spreadMethod="pad"
       id="linearGradient1125"><stop
         style="stop-opacity:1;stop-color:#462315"
         offset="0"
         id="stop1103" /><stop
         style="stop-opacity:1;stop-color:#b5681d"
         offset="0.1"
         id="stop1105" /><stop
         style="stop-opacity:1;stop-color:#ffffff"
         offset="0.15"
         id="stop1107" /><stop
         style="stop-opacity:1;stop-color:#ed9623"
         offset="0.22"
         id="stop1109" /><stop
         style="stop-opacity:1;stop-color:#9b4e1d"
         offset="0.34"
         id="stop1111" /><stop
         style="stop-opacity:1;stop-color:#e7a12f"
         offset="0.5"
         id="stop1113" /><stop
         style="stop-opacity:1;stop-color:#f9e65e"
         offset="0.66"
         id="stop1115" /><stop
         style="stop-opacity:1;stop-color:#e0c043"
         offset="0.72"
         id="stop1117" /><stop
         style="stop-opacity:1;stop-color:#ffffff"
         offset="0.77"
         id="stop1119" /><stop
         style="stop-opacity:1;stop-color:#a96e1d"
         offset="0.83"
         id="stop1121" /><stop
         style="stop-opacity:1;stop-color:#6b3818"
         offset="1"
         id="stop1123" /></linearGradient><linearGradient
       x1="0"
       y1="0"
       x2="1"
       y2="0"
       gradientUnits="userSpaceOnUse"
       gradientTransform="matrix(-3254.02,-2452.08,-2452.08,3254.02,9425.93,5105.98)"
       spreadMethod="pad"
       id="linearGradient1151"><stop
         style="stop-opacity:1;stop-color:#462315"
         offset="0"
         id="stop1129" /><stop
         style="stop-opacity:1;stop-color:#b5681d"
         offset="0.1"
         id="stop1131" /><stop
         style="stop-opacity:1;stop-color:#ffffff"
         offset="0.15"
         id="stop1133" /><stop
         style="stop-opacity:1;stop-color:#ed9623"
         offset="0.22"
         id="stop1135" /><stop
         style="stop-opacity:1;stop-color:#9b4e1d"
         offset="0.34"
         id="stop1137" /><stop
         style="stop-opacity:1;stop-color:#e7a12f"
         offset="0.5"
         id="stop1139" /><stop
         style="stop-opacity:1;stop-color:#f9e65e"
         offset="0.66"
         id="stop1141" /><stop
         style="stop-opacity:1;stop-color:#e0c043"
         offset="0.72"
         id="stop1143" /><stop
         style="stop-opacity:1;stop-color:#ffffff"
         offset="0.77"
         id="stop1145" /><stop
         style="stop-opacity:1;stop-color:#a96e1d"
         offset="0.83"
         id="stop1147" /><stop
         style="stop-opacity:1;stop-color:#6b3818"
         offset="1"
         id="stop1149" /></linearGradient><linearGradient
       x1="0"
       y1="0"
       x2="1"
       y2="0"
       gradientUnits="userSpaceOnUse"
       gradientTransform="matrix(4823.49,0,0,-4823.49,5387.26,3880)"
       spreadMethod="pad"
       id="linearGradient1177"><stop
         style="stop-opacity:1;stop-color:#462315"
         offset="0"
         id="stop1155" /><stop
         style="stop-opacity:1;stop-color:#b5681d"
         offset="0.1"
         id="stop1157" /><stop
         style="stop-opacity:1;stop-color:#ffffff"
         offset="0.15"
         id="stop1159" /><stop
         style="stop-opacity:1;stop-color:#ed9623"
         offset="0.22"
         id="stop1161" /><stop
         style="stop-opacity:1;stop-color:#9b4e1d"
         offset="0.34"
         id="stop1163" /><stop
         style="stop-opacity:1;stop-color:#e7a12f"
         offset="0.5"
         id="stop1165" /><stop
         style="stop-opacity:1;stop-color:#f9e65e"
         offset="0.66"
         id="stop1167" /><stop
         style="stop-opacity:1;stop-color:#e0c043"
         offset="0.72"
         id="stop1169" /><stop
         style="stop-opacity:1;stop-color:#fef189"
         offset="0.77"
         id="stop1171" /><stop
         style="stop-opacity:1;stop-color:#a96e1d"
         offset="0.83"
         id="stop1173" /><stop
         style="stop-opacity:1;stop-color:#6b3818"
         offset="1"
         id="stop1175" /></linearGradient><linearGradient
       x1="0"
       y1="0"
       x2="1"
       y2="0"
       gradientUnits="userSpaceOnUse"
       gradientTransform="matrix(-1e-7,1715.51,-1715.51,-1e-7,2703.04,725.22)"
       spreadMethod="pad"
       id="linearGradient1207"><stop
         style="stop-opacity:1;stop-color:#462315"
         offset="0"
         id="stop1185" /><stop
         style="stop-opacity:1;stop-color:#b5681d"
         offset="0.1"
         id="stop1187" /><stop
         style="stop-opacity:1;stop-color:#ffffff"
         offset="0.15"
         id="stop1189" /><stop
         style="stop-opacity:1;stop-color:#ed9623"
         offset="0.22"
         id="stop1191" /><stop
         style="stop-opacity:1;stop-color:#9b4e1d"
         offset="0.34"
         id="stop1193" /><stop
         style="stop-opacity:1;stop-color:#e7a12f"
         offset="0.5"
         id="stop1195" /><stop
         style="stop-opacity:1;stop-color:#f9e65e"
         offset="0.66"
         id="stop1197" /><stop
         style="stop-opacity:1;stop-color:#e0c043"
         offset="0.72"
         id="stop1199" /><stop
         style="stop-opacity:1;stop-color:#ffffff"
         offset="0.77"
         id="stop1201" /><stop
         style="stop-opacity:1;stop-color:#a96e1d"
         offset="0.83"
         id="stop1203" /><stop
         style="stop-opacity:1;stop-color:#6b3818"
         offset="1"
         id="stop1205" /></linearGradient><linearGradient
       x1="0"
       y1="0"
       x2="1"
       y2="0"
       gradientUnits="userSpaceOnUse"
       gradientTransform="matrix(-1e-7,1535.78,-1535.78,-1e-7,2703.04,815.13)"
       spreadMethod="pad"
       id="linearGradient1231"><stop
         style="stop-opacity:1;stop-color:#462315"
         offset="0"
         id="stop1211" /><stop
         style="stop-opacity:1;stop-color:#ffffff"
         offset="0.15"
         id="stop1213" /><stop
         style="stop-opacity:1;stop-color:#ed9623"
         offset="0.22"
         id="stop1215" /><stop
         style="stop-opacity:1;stop-color:#9b4e1d"
         offset="0.34"
         id="stop1217" /><stop
         style="stop-opacity:1;stop-color:#e7a12f"
         offset="0.5"
         id="stop1219" /><stop
         style="stop-opacity:1;stop-color:#f9e65e"
         offset="0.66"
         id="stop1221" /><stop
         style="stop-opacity:1;stop-color:#e0c043"
         offset="0.72"
         id="stop1223" /><stop
         style="stop-opacity:1;stop-color:#ffffff"
         offset="0.77"
         id="stop1225" /><stop
         style="stop-opacity:1;stop-color:#a96e1d"
         offset="0.83"
         id="stop1227" /><stop
         style="stop-opacity:1;stop-color:#6b3818"
         offset="1"
         id="stop1229" /></linearGradient><linearGradient
       x1="0"
       y1="0"
       x2="1"
       y2="0"
       gradientUnits="userSpaceOnUse"
       gradientTransform="matrix(-4250.99,-2e-7,2e-7,-4250.99,4828.54,1582.98)"
       spreadMethod="pad"
       id="linearGradient1259"><stop
         style="stop-opacity:1;stop-color:#462315"
         offset="0"
         id="stop1235" /><stop
         style="stop-opacity:1;stop-color:#b5681d"
         offset="0.1"
         id="stop1237" /><stop
         style="stop-opacity:1;stop-color:#e7c05c"
         offset="0.15"
         id="stop1239" /><stop
         style="stop-opacity:1;stop-color:#ed9623"
         offset="0.22"
         id="stop1241" /><stop
         style="stop-opacity:1;stop-color:#9b4e1d"
         offset="0.34"
         id="stop1243" /><stop
         style="stop-opacity:1;stop-color:#e7a12f"
         offset="0.5"
         id="stop1245" /><stop
         style="stop-opacity:1;stop-color:#e7c05c"
         offset="0.568906"
         id="stop1247" /><stop
         style="stop-opacity:1;stop-color:#f9e65e"
         offset="0.66"
         id="stop1249" /><stop
         style="stop-opacity:1;stop-color:#e0c043"
         offset="0.72"
         id="stop1251" /><stop
         style="stop-opacity:1;stop-color:#e7c05c"
         offset="0.778223"
         id="stop1253" /><stop
         style="stop-opacity:1;stop-color:#a96e1d"
         offset="0.83"
         id="stop1255" /><stop
         style="stop-opacity:1;stop-color:#6b3818"
         offset="1"
         id="stop1257" /></linearGradient><linearGradient
       x1="0"
       y1="0"
       x2="1"
       y2="0"
       gradientUnits="userSpaceOnUse"
       gradientTransform="matrix(-1.94381e-7,2446.0834,-3472.9081,-1.3690893e-7,5510.0484,4994.2391)"
       spreadMethod="pad"
       id="linearGradient1285"><stop
         style="stop-opacity:1;stop-color:#e7a12f"
         offset="0"
         id="stop1267" /><stop
         style="stop-opacity:1;stop-color:#ffffff"
         offset="0.180391"
         id="stop1269" /><stop
         style="stop-opacity:1;stop-color:#e7a12f"
         offset="0.34043"
         id="stop1271" /><stop
         style="stop-opacity:1;stop-color:#462315"
         offset="0.581094"
         id="stop1273" /><stop
         style="stop-opacity:1;stop-color:#e7a12f"
         offset="0.703574"
         id="stop1275" /><stop
         style="stop-opacity:1;stop-color:#9b4e1d"
         offset="0.761641"
         id="stop1277" /><stop
         style="stop-opacity:1;stop-color:#ed9623"
         offset="0.859355"
         id="stop1279" /><stop
         style="stop-opacity:1;stop-color:#ffffff"
         offset="0.912051"
         id="stop1281" /><stop
         style="stop-opacity:1;stop-color:#b5681d"
         offset="1"
         id="stop1283" /></linearGradient><linearGradient
       x1="0"
       y1="0"
       x2="1"
       y2="0"
       gradientUnits="userSpaceOnUse"
       gradientTransform="matrix(6089.6457,-3232.105,4588.8883,4289.1378,2465.381,7833.2511)"
       spreadMethod="pad"
       id="linearGradient1303"><stop
         style="stop-opacity:1;stop-color:#b5681d"
         offset="0"
         id="stop1289" /><stop
         style="stop-opacity:1;stop-color:#b5681d"
         offset="0.1"
         id="stop1291" /><stop
         style="stop-opacity:1;stop-color:#ffffff"
         offset="0.15"
         id="stop1293" /><stop
         style="stop-opacity:1;stop-color:#e0c043"
         offset="0.72"
         id="stop1295" /><stop
         style="stop-opacity:1;stop-color:#ffffff"
         offset="0.77"
         id="stop1297" /><stop
         style="stop-opacity:1;stop-color:#a96e1d"
         offset="0.83"
         id="stop1299" /><stop
         style="stop-opacity:1;stop-color:#6b3818"
         offset="1"
         id="stop1301" /></linearGradient><linearGradient
       x1="0"
       y1="0"
       x2="1"
       y2="0"
       gradientUnits="userSpaceOnUse"
       gradientTransform="matrix(-9956.1754,-2.7381786e-7,3.88762e-7,-7012.4618,10488.088,6217.274)"
       spreadMethod="pad"
       id="linearGradient1331"
       xlink:href="#linearGradient1303"><stop
         style="stop-opacity:1;stop-color:#462315"
         offset="0"
         id="stop1307" /><stop
         style="stop-opacity:1;stop-color:#b5681d"
         offset="0.1"
         id="stop1309" /><stop
         style="stop-opacity:1;stop-color:#e7c05c"
         offset="0.15"
         id="stop1311" /><stop
         style="stop-opacity:1;stop-color:#ed9623"
         offset="0.22"
         id="stop1313" /><stop
         style="stop-opacity:1;stop-color:#9b4e1d"
         offset="0.34"
         id="stop1315" /><stop
         style="stop-opacity:1;stop-color:#e7a12f"
         offset="0.5"
         id="stop1317" /><stop
         style="stop-opacity:1;stop-color:#e7c05c"
         offset="0.568906"
         id="stop1319" /><stop
         style="stop-opacity:1;stop-color:#f9e65e"
         offset="0.66"
         id="stop1321" /><stop
         style="stop-opacity:1;stop-color:#e0c043"
         offset="0.72"
         id="stop1323" /><stop
         style="stop-opacity:1;stop-color:#e7c05c"
         offset="0.778223"
         id="stop1325" /><stop
         style="stop-opacity:1;stop-color:#a96e1d"
         offset="0.83"
         id="stop1327" /><stop
         style="stop-opacity:1;stop-color:#6b3818"
         offset="1"
         id="stop1329" /></linearGradient><linearGradient
       x1="0"
       y1="0"
       x2="1"
       y2="0"
       gradientUnits="userSpaceOnUse"
       gradientTransform="matrix(0,2329.24,2329.24,0,2688.04,2600.99)"
       spreadMethod="pad"
       id="linearGradient1361"><stop
         style="stop-opacity:1;stop-color:#462315"
         offset="0"
         id="stop1339" /><stop
         style="stop-opacity:1;stop-color:#b5681d"
         offset="0.1"
         id="stop1341" /><stop
         style="stop-opacity:1;stop-color:#ffffff"
         offset="0.15"
         id="stop1343" /><stop
         style="stop-opacity:1;stop-color:#ed9623"
         offset="0.22"
         id="stop1345" /><stop
         style="stop-opacity:1;stop-color:#9b4e1d"
         offset="0.34"
         id="stop1347" /><stop
         style="stop-opacity:1;stop-color:#e7a12f"
         offset="0.5"
         id="stop1349" /><stop
         style="stop-opacity:1;stop-color:#f9e65e"
         offset="0.66"
         id="stop1351" /><stop
         style="stop-opacity:1;stop-color:#e0c043"
         offset="0.72"
         id="stop1353" /><stop
         style="stop-opacity:1;stop-color:#ffffff"
         offset="0.77"
         id="stop1355" /><stop
         style="stop-opacity:1;stop-color:#a96e1d"
         offset="0.83"
         id="stop1357" /><stop
         style="stop-opacity:1;stop-color:#6b3818"
         offset="1"
         id="stop1359" /></linearGradient><linearGradient
       x1="0"
       y1="0"
       x2="1"
       y2="0"
       gradientUnits="userSpaceOnUse"
       gradientTransform="matrix(0,-2077.94,-2077.94,0,2688.04,4804.54)"
       spreadMethod="pad"
       id="linearGradient1387"><stop
         style="stop-opacity:1;stop-color:#462315"
         offset="0"
         id="stop1365" /><stop
         style="stop-opacity:1;stop-color:#b5681d"
         offset="0.1"
         id="stop1367" /><stop
         style="stop-opacity:1;stop-color:#ffffff"
         offset="0.15"
         id="stop1369" /><stop
         style="stop-opacity:1;stop-color:#ed9623"
         offset="0.22"
         id="stop1371" /><stop
         style="stop-opacity:1;stop-color:#9b4e1d"
         offset="0.34"
         id="stop1373" /><stop
         style="stop-opacity:1;stop-color:#e7a12f"
         offset="0.5"
         id="stop1375" /><stop
         style="stop-opacity:1;stop-color:#f9e65e"
         offset="0.66"
         id="stop1377" /><stop
         style="stop-opacity:1;stop-color:#e0c043"
         offset="0.72"
         id="stop1379" /><stop
         style="stop-opacity:1;stop-color:#ffffff"
         offset="0.77"
         id="stop1381" /><stop
         style="stop-opacity:1;stop-color:#a96e1d"
         offset="0.83"
         id="stop1383" /><stop
         style="stop-opacity:1;stop-color:#6b3818"
         offset="1"
         id="stop1385" /></linearGradient><linearGradient
       x1="0"
       y1="0"
       x2="1"
       y2="0"
       gradientUnits="userSpaceOnUse"
       gradientTransform="matrix(3852.15,0,0,-3852.15,761.967,3765.62)"
       spreadMethod="pad"
       id="linearGradient1415"><stop
         style="stop-opacity:1;stop-color:#462315"
         offset="0"
         id="stop1391" /><stop
         style="stop-opacity:1;stop-color:#b5681d"
         offset="0.1"
         id="stop1393" /><stop
         style="stop-opacity:1;stop-color:#e7c05c"
         offset="0.15"
         id="stop1395" /><stop
         style="stop-opacity:1;stop-color:#ed9623"
         offset="0.22"
         id="stop1397" /><stop
         style="stop-opacity:1;stop-color:#9b4e1d"
         offset="0.34"
         id="stop1399" /><stop
         style="stop-opacity:1;stop-color:#e7a12f"
         offset="0.5"
         id="stop1401" /><stop
         style="stop-opacity:1;stop-color:#e7c05c"
         offset="0.568906"
         id="stop1403" /><stop
         style="stop-opacity:1;stop-color:#f9e65e"
         offset="0.66"
         id="stop1405" /><stop
         style="stop-opacity:1;stop-color:#e0c043"
         offset="0.72"
         id="stop1407" /><stop
         style="stop-opacity:1;stop-color:#e7c05c"
         offset="0.778223"
         id="stop1409" /><stop
         style="stop-opacity:1;stop-color:#a96e1d"
         offset="0.83"
         id="stop1411" /><stop
         style="stop-opacity:1;stop-color:#6b3818"
         offset="1"
         id="stop1413" /></linearGradient><linearGradient
       x1="0"
       y1="0"
       x2="1"
       y2="0"
       gradientUnits="userSpaceOnUse"
       gradientTransform="matrix(-1e-7,2412.12,-2412.12,-1e-7,2668.05,5054.06)"
       spreadMethod="pad"
       id="linearGradient1445"><stop
         style="stop-opacity:1;stop-color:#462315"
         offset="0"
         id="stop1423" /><stop
         style="stop-opacity:1;stop-color:#b5681d"
         offset="0.1"
         id="stop1425" /><stop
         style="stop-opacity:1;stop-color:#ffffff"
         offset="0.15"
         id="stop1427" /><stop
         style="stop-opacity:1;stop-color:#ed9623"
         offset="0.22"
         id="stop1429" /><stop
         style="stop-opacity:1;stop-color:#9b4e1d"
         offset="0.34"
         id="stop1431" /><stop
         style="stop-opacity:1;stop-color:#e7a12f"
         offset="0.5"
         id="stop1433" /><stop
         style="stop-opacity:1;stop-color:#f9e65e"
         offset="0.66"
         id="stop1435" /><stop
         style="stop-opacity:1;stop-color:#e0c043"
         offset="0.72"
         id="stop1437" /><stop
         style="stop-opacity:1;stop-color:#ffffff"
         offset="0.77"
         id="stop1439" /><stop
         style="stop-opacity:1;stop-color:#a96e1d"
         offset="0.83"
         id="stop1441" /><stop
         style="stop-opacity:1;stop-color:#6b3818"
         offset="1"
         id="stop1443" /></linearGradient><linearGradient
       x1="0"
       y1="0"
       x2="1"
       y2="0"
       gradientUnits="userSpaceOnUse"
       gradientTransform="matrix(-1e-7,2007.31,-2007.31,-1e-7,2668.03,5256.47)"
       spreadMethod="pad"
       id="linearGradient1471"><stop
         style="stop-opacity:1;stop-color:#462315"
         offset="0"
         id="stop1449" /><stop
         style="stop-opacity:1;stop-color:#b5681d"
         offset="0.1"
         id="stop1451" /><stop
         style="stop-opacity:1;stop-color:#ffffff"
         offset="0.15"
         id="stop1453" /><stop
         style="stop-opacity:1;stop-color:#ed9623"
         offset="0.22"
         id="stop1455" /><stop
         style="stop-opacity:1;stop-color:#9b4e1d"
         offset="0.34"
         id="stop1457" /><stop
         style="stop-opacity:1;stop-color:#e7a12f"
         offset="0.5"
         id="stop1459" /><stop
         style="stop-opacity:1;stop-color:#f9e65e"
         offset="0.66"
         id="stop1461" /><stop
         style="stop-opacity:1;stop-color:#e0c043"
         offset="0.72"
         id="stop1463" /><stop
         style="stop-opacity:1;stop-color:#ffffff"
         offset="0.77"
         id="stop1465" /><stop
         style="stop-opacity:1;stop-color:#a96e1d"
         offset="0.83"
         id="stop1467" /><stop
         style="stop-opacity:1;stop-color:#6b3818"
         offset="1"
         id="stop1469" /></linearGradient><linearGradient
       x1="0"
       y1="0"
       x2="1"
       y2="0"
       gradientUnits="userSpaceOnUse"
       gradientTransform="matrix(2826.97,-2130.27,2130.27,2826.97,1254.65,7325.18)"
       spreadMethod="pad"
       id="linearGradient1497"><stop
         style="stop-opacity:1;stop-color:#462315"
         offset="0"
         id="stop1475" /><stop
         style="stop-opacity:1;stop-color:#b5681d"
         offset="0.1"
         id="stop1477" /><stop
         style="stop-opacity:1;stop-color:#ffffff"
         offset="0.15"
         id="stop1479" /><stop
         style="stop-opacity:1;stop-color:#ed9623"
         offset="0.22"
         id="stop1481" /><stop
         style="stop-opacity:1;stop-color:#9b4e1d"
         offset="0.34"
         id="stop1483" /><stop
         style="stop-opacity:1;stop-color:#e7a12f"
         offset="0.5"
         id="stop1485" /><stop
         style="stop-opacity:1;stop-color:#f9e65e"
         offset="0.66"
         id="stop1487" /><stop
         style="stop-opacity:1;stop-color:#e0c043"
         offset="0.72"
         id="stop1489" /><stop
         style="stop-opacity:1;stop-color:#ffffff"
         offset="0.77"
         id="stop1491" /><stop
         style="stop-opacity:1;stop-color:#a96e1d"
         offset="0.83"
         id="stop1493" /><stop
         style="stop-opacity:1;stop-color:#6b3818"
         offset="1"
         id="stop1495" /></linearGradient><linearGradient
       x1="0"
       y1="0"
       x2="1"
       y2="0"
       gradientUnits="userSpaceOnUse"
       gradientTransform="matrix(-6661.42,-3e-7,3e-7,-6661.42,6610.82,6260.13)"
       spreadMethod="pad"
       id="linearGradient1523"><stop
         style="stop-opacity:1;stop-color:#462315"
         offset="0"
         id="stop1501" /><stop
         style="stop-opacity:1;stop-color:#b5681d"
         offset="0.1"
         id="stop1503" /><stop
         style="stop-opacity:1;stop-color:#ffffff"
         offset="0.15"
         id="stop1505" /><stop
         style="stop-opacity:1;stop-color:#ed9623"
         offset="0.22"
         id="stop1507" /><stop
         style="stop-opacity:1;stop-color:#9b4e1d"
         offset="0.34"
         id="stop1509" /><stop
         style="stop-opacity:1;stop-color:#e7a12f"
         offset="0.5"
         id="stop1511" /><stop
         style="stop-opacity:1;stop-color:#f9e65e"
         offset="0.66"
         id="stop1513" /><stop
         style="stop-opacity:1;stop-color:#e0c043"
         offset="0.72"
         id="stop1515" /><stop
         style="stop-opacity:1;stop-color:#fef189"
         offset="0.77"
         id="stop1517" /><stop
         style="stop-opacity:1;stop-color:#a96e1d"
         offset="0.83"
         id="stop1519" /><stop
         style="stop-opacity:1;stop-color:#6b3818"
         offset="1"
         id="stop1521" /></linearGradient><clipPath
       clipPathUnits="userSpaceOnUse"
       id="clipPath1545"><path
         d="m 2433.24,1520.18 h -255.86 v -77.42 h 86.91 v -263.18 -7.72 h 7.73 66.57 7.73 v 7.72 263.18 h 79.19 7.73 v 7.74 61.95 7.73 z m 265.81,0 h -233.21 v -348.32 h 233.21 v 7.72 62.88 7.73 h -7.73 -143.44 v 60.35 h 114.78 7.73 v 7.73 62.88 7.73 h -7.73 -114.78 v 52.97 h 143.44 7.73 v 7.72 62.88 7.73 z m 560.75,0 h -344.08 l -2.24,-3.82 -54.84,-93.61 -55.27,93.63 -2.25,3.8 h -4.41 -77.67 -13.63 l 7,-11.7 94.74,-158.35 -97.55,-166.64 -6.81,-11.63 h 13.48 72.58 4.44 l 2.24,3.82 57.6,98.65 58.04,-98.67 2.25,-3.8 h 4.42 77.67 13.62 l -6.99,11.68 -97.06,162.52 94.34,162.5 4.52,7.8 v -3.91 -61.95 -7.74 h 7.73 79.18 v -263.18 -7.72 h 7.73 66.58 7.73 v 7.72 263.18 h 79.18 7.73 v 7.74 61.95 7.73 z m -1037.98,203.1 25.62,86.7 24.96,-86.7 h -50.58 z m 70.64,195.09 h -88.93 l -1.73,-5.36 -107.25,-332.86 -3.26,-10.1 h 10.61 68.89 5.77 l 1.64,5.53 20.55,69.36 h 96.14 l 20.11,-69.32 1.62,-5.57 h 5.81 71.66 10.61 l -3.25,10.1 -107.26,332.86 -1.73,5.36 z m 471.32,0 h -85.82 l -2.03,-4.61 -78.91,-179.04 -78.92,179.04 -2.04,4.61 h -5.03 -73.05 -7.73 v -7.73 -332.87 -7.72 h 7.73 62.87 7.74 v 7.72 184.15 l 57.27,-134.02 2.01,-4.69 h 5.1 48.08 5.11 l 2,4.69 57.28,134.02 v -184.15 -7.72 h 7.74 62.87 7.73 v 7.72 332.87 7.73 z m 139.6,-78.33 h 79.18 c 5.9,0 7.99,-2.09 7.99,-7.99 v -58.26 c 0,-5.89 -2.09,-7.99 -7.99,-7.99 h -79.18 v 74.24 z m 95.82,78.33 h -177.86 v -348.32 h 82.04 v 7.72 109.7 h 95.82 c 43.21,0 73.38,30.18 73.38,73.38 v 84.14 c 0,43.2 -30.17,73.38 -73.38,73.38 z m 193.57,0 h -82.04 v -348.32 h 221.65 v 7.72 62.88 7.73 h -7.73 -131.88 v 262.26 7.73 z m 407.74,0 H 3367.3 v -348.32 h 233.21 v 7.72 62.88 7.73 h -7.73 -143.44 v 60.36 h 114.78 7.73 v 7.72 62.89 7.72 h -7.73 -114.78 v 52.97 h 143.44 7.73 v 7.72 62.88 7.73 z m -1598.45,1.85 h -98.02 c -43.2,0 -73.37,-30.17 -73.37,-73.38 v -56.4 c 0,-36.5 27.16,-64.21 72.65,-74.13 l 86.01,-18.49 c 9.62,-2.19 9.62,-4.06 9.62,-8.16 v -35.14 c 0,-5.9 -2.09,-7.99 -7.99,-7.99 h -72.12 c -5.9,0 -7.99,2.09 -7.99,7.99 v 29.59 7.73 h -7.73 -64.72 -7.73 v -7.73 -42.54 c 0,-43.2 30.17,-73.38 73.37,-73.38 h 103.56 c 43.21,0 73.38,30.18 73.38,73.38 v 60.11 c 0,36.49 -27.16,64.21 -72.65,74.12 l -86.02,18.5 c -9.61,2.18 -9.61,4.06 -9.61,8.16 v 31.44 c 0,5.89 2.09,7.98 7.99,7.98 h 66.57 c 5.9,0 7.99,-2.09 7.99,-7.98 v -25.89 -7.74 h 7.73 64.72 7.73 v 7.74 38.83 c 0,43.21 -30.17,73.38 -73.37,73.38 z m 423.45,-407.77 v -61.95 h -86.92 v -270.92 h -66.57 v 270.92 h -86.91 v 61.95 h 240.4 m 265.81,0 v -62.88 h -151.17 v -68.42 h 122.51 v -62.88 h -122.51 v -75.81 h 151.17 v -62.88 h -217.75 v 332.87 h 217.75 m 301.41,0 -96.62,-166.43 99.4,-166.44 h -77.67 l -64.73,110.03 -64.26,-110.03 h -72.58 l 99.86,170.6 -97.09,162.27 h 77.67 l 61.95,-104.95 61.49,104.95 h 72.58 m 259.34,0 v -61.95 h -86.91 v -270.92 h -66.58 v 270.92 h -86.91 v 61.95 h 240.4 m -1040.6,203.1 h 71.2 l -35.14,122.05 -36.06,-122.05 m 75.36,195.09 107.26,-332.87 h -71.66 l -21.73,74.9 h -107.72 l -22.19,-74.9 h -68.89 l 107.26,332.87 h 77.67 m 469.22,0 v -332.87 h -62.87 v 221.92 l -72.13,-168.75 h -48.08 l -72.12,168.75 v -221.92 h -62.87 v 332.87 h 73.05 l 85.99,-195.09 85.98,195.09 h 73.05 m 139.6,-152.56 h 86.91 c 10.17,0 15.72,5.54 15.72,15.71 v 58.26 c 0,10.17 -5.55,15.71 -15.72,15.71 h -86.91 v -89.68 m 103.55,152.56 c 38.84,0 65.65,-26.81 65.65,-65.65 v -84.14 c 0,-38.84 -26.81,-65.64 -65.65,-65.64 h -103.55 v -117.44 h -66.58 v 332.87 h 170.13 m 185.84,0 v -269.99 h 139.61 v -62.88 h -206.19 v 332.87 h 66.58 m 407.74,0 v -62.88 h -151.17 v -68.41 h 122.51 v -62.89 h -122.51 v -75.81 h 151.17 v -62.88 h -217.75 v 332.87 h 217.75 m -1590.72,1.85 c 38.83,0 65.64,-26.82 65.64,-65.65 v -38.83 h -64.72 v 25.89 c 0,10.16 -5.55,15.72 -15.72,15.72 h -66.57 c -10.17,0 -15.72,-5.56 -15.72,-15.72 v -31.44 c 0,-10.17 5.55,-13.41 15.72,-15.72 l 85.98,-18.49 c 36.07,-7.86 66.58,-29.59 66.58,-66.57 v -60.11 c 0,-38.83 -26.81,-65.64 -65.65,-65.64 h -103.56 c -38.83,0 -65.64,26.81 -65.64,65.64 v 42.54 h 64.72 v -29.59 c 0,-10.16 5.55,-15.72 15.72,-15.72 h 72.12 c 10.17,0 15.71,5.56 15.71,15.72 v 35.14 c 0,10.16 -5.54,13.41 -15.71,15.72 l -85.99,18.49 c -36.06,7.86 -66.57,29.59 -66.57,66.57 v 56.4 c 0,38.83 26.81,65.65 65.64,65.65 h 98.02"
         id="path1543" /></clipPath><linearGradient
       x1="0"
       y1="0"
       x2="1"
       y2="0"
       gradientUnits="userSpaceOnUse"
       gradientTransform="matrix(0,748.371,748.371,0,2715.59,1171.85)"
       spreadMethod="pad"
       id="linearGradient1571"><stop
         style="stop-opacity:1;stop-color:#462315"
         offset="0"
         id="stop1547" /><stop
         style="stop-opacity:1;stop-color:#b5681d"
         offset="0.1"
         id="stop1549" /><stop
         style="stop-opacity:1;stop-color:#e7c05c"
         offset="0.15"
         id="stop1551" /><stop
         style="stop-opacity:1;stop-color:#ed9623"
         offset="0.22"
         id="stop1553" /><stop
         style="stop-opacity:1;stop-color:#9b4e1d"
         offset="0.34"
         id="stop1555" /><stop
         style="stop-opacity:1;stop-color:#e7a12f"
         offset="0.5"
         id="stop1557" /><stop
         style="stop-opacity:1;stop-color:#e7c05c"
         offset="0.568906"
         id="stop1559" /><stop
         style="stop-opacity:1;stop-color:#f9e65e"
         offset="0.66"
         id="stop1561" /><stop
         style="stop-opacity:1;stop-color:#e0c043"
         offset="0.72"
         id="stop1563" /><stop
         style="stop-opacity:1;stop-color:#e7c05c"
         offset="0.778223"
         id="stop1565" /><stop
         style="stop-opacity:1;stop-color:#a96e1d"
         offset="0.83"
         id="stop1567" /><stop
         style="stop-opacity:1;stop-color:#6b3818"
         offset="1"
         id="stop1569" /></linearGradient><clipPath
       clipPathUnits="userSpaceOnUse"
       id="clipPath1589"><path
         d="m 2405.69,3705.44 h -255.86 v -77.41 h 86.91 v -263.19 -7.72 h 7.74 66.56 7.74 v 7.72 263.19 h 79.18 7.73 v 7.73 61.95 7.73 z m 265.81,0 h -233.2 v -348.32 h 233.2 v 7.72 62.88 7.73 h -7.73 -143.44 v 60.36 h 114.78 7.73 v 7.73 62.88 7.72 h -7.73 -114.78 v 52.97 h 143.44 7.73 v 7.72 62.88 7.73 z m 560.75,0 h -344.08 l -2.24,-3.82 -54.84,-93.6 -55.27,93.62 -2.24,3.8 h -4.41 -77.68 -13.63 l 7,-11.7 94.74,-158.35 -97.55,-166.64 -6.81,-11.63 h 13.49 72.57 4.44 l 2.24,3.83 57.61,98.64 58.03,-98.66 2.25,-3.81 h 4.42 77.67 13.62 l -6.99,11.69 -97.06,162.52 94.34,162.5 4.52,7.79 v -3.91 -61.95 -7.73 h 7.73 79.19 v -263.19 -7.72 h 7.73 66.57 7.73 v 7.72 263.19 h 79.18 7.73 v 7.73 61.95 7.73 z m -1037.98,203.1 25.62,86.71 24.96,-86.71 h -50.58 z m 70.64,195.1 h -88.93 l -1.73,-5.36 -107.25,-332.87 -3.25,-10.1 h 10.61 68.88 5.77 l 1.64,5.53 20.56,69.37 h 96.13 l 20.11,-69.32 1.62,-5.58 h 5.81 71.66 10.61 l -3.25,10.1 -107.26,332.87 -1.73,5.36 z m 471.33,0 h -85.82 l -2.04,-4.62 -78.91,-179.04 -78.92,179.04 -2.03,4.62 h -5.04 -73.05 -7.73 v -7.73 -332.87 -7.73 h 7.73 62.88 7.73 v 7.73 184.15 l 57.28,-134.03 2,-4.68 h 5.1 48.09 5.1 l 2.01,4.68 57.28,134.03 v -184.15 -7.73 h 7.73 62.87 7.74 v 7.73 332.87 7.73 z m 139.59,-78.34 h 79.18 c 5.9,0 7.99,-2.09 7.99,-7.99 v -58.25 c 0,-5.9 -2.09,-7.99 -7.99,-7.99 h -79.18 v 74.23 z m 95.83,78.34 h -177.87 v -348.33 h 82.04 v 7.73 109.7 h 95.83 c 43.2,0 73.37,30.18 73.37,73.38 v 84.13 c 0,43.21 -30.17,73.39 -73.37,73.39 z m 193.56,0 h -82.04 v -348.33 h 221.65 v 7.73 62.88 7.72 h -7.73 -131.88 v 262.27 7.73 z m 407.74,0 h -233.21 v -348.33 h 233.21 v 7.73 62.88 7.72 h -7.73 -143.44 V 3894 h 114.78 7.73 v 7.73 62.87 7.74 h -7.73 -114.78 v 52.96 h 143.44 7.73 v 7.73 62.88 7.73 z m -1598.45,1.85 h -98.02 c -43.2,0 -73.37,-30.18 -73.37,-73.39 v -56.4 c 0,-36.5 27.16,-64.21 72.66,-74.12 l 86,-18.49 c 9.62,-2.19 9.62,-4.07 9.62,-8.17 v -35.13 c 0,-5.9 -2.09,-7.99 -7.99,-7.99 h -72.12 c -5.9,0 -7.99,2.09 -7.99,7.99 v 29.58 7.73 h -7.73 -64.72 -7.73 v -7.73 -42.53 c 0,-43.21 30.17,-73.38 73.37,-73.38 h 103.56 c 43.21,0 73.38,30.17 73.38,73.38 v 60.1 c 0,36.5 -27.16,64.21 -72.65,74.13 l -86.01,18.5 c -9.62,2.18 -9.62,4.05 -9.62,8.15 v 31.44 c 0,5.9 2.09,7.99 7.99,7.99 h 66.57 c 5.9,0 7.99,-2.09 7.99,-7.99 v -25.89 -7.73 h 7.73 64.72 7.74 v 7.73 38.83 c 0,43.21 -30.18,73.39 -73.38,73.39 z m 423.45,-407.78 v -61.95 h -86.92 v -270.92 h -66.56 v 270.92 h -86.92 v 61.95 h 240.4 m 265.81,0 v -62.88 H 2512.6 v -68.41 h 122.51 v -62.88 H 2512.6 v -75.82 h 151.17 v -62.88 h -217.74 v 332.87 h 217.74 m 301.42,0 -96.63,-166.43 99.4,-166.44 h -77.67 l -64.72,110.04 -64.27,-110.04 h -72.57 l 99.85,170.6 -97.09,162.27 h 77.68 l 61.94,-104.94 61.49,104.94 h 72.59 m 259.33,0 v -61.95 h -86.91 v -270.92 h -66.57 v 270.92 h -86.92 v 61.95 h 240.4 m -1040.59,203.1 h 71.19 l -35.13,122.05 -36.06,-122.05 m 75.35,195.1 107.26,-332.87 h -71.66 l -21.73,74.9 h -107.72 l -22.19,-74.9 h -68.88 l 107.25,332.87 h 77.67 m 469.22,0 v -332.87 h -62.87 v 221.92 l -72.12,-168.75 h -48.09 l -72.11,168.75 v -221.92 h -62.88 v 332.87 h 73.05 l 85.99,-195.1 85.98,195.1 h 73.05 m 139.6,-152.57 h 86.91 c 10.18,0 15.72,5.55 15.72,15.72 v 58.25 c 0,10.17 -5.54,15.72 -15.72,15.72 h -86.91 v -89.69 m 103.56,152.57 c 38.83,0 65.64,-26.82 65.64,-65.66 v -84.13 c 0,-38.84 -26.81,-65.65 -65.64,-65.65 H 2868.1 v -117.43 h -66.58 v 332.87 h 170.14 m 185.83,0 v -269.99 h 139.61 v -62.88 h -206.19 v 332.87 h 66.58 m 407.74,0 v -62.88 h -151.17 v -68.43 h 122.51 v -62.87 h -122.51 v -75.81 h 151.17 v -62.88 h -217.75 v 332.87 h 217.75 m -1590.72,1.84 c 38.83,0 65.64,-26.81 65.64,-65.65 v -38.83 h -64.72 v 25.89 c 0,10.17 -5.55,15.72 -15.72,15.72 h -66.57 c -10.17,0 -15.72,-5.55 -15.72,-15.72 v -31.44 c 0,-10.17 5.55,-13.4 15.72,-15.71 l 85.99,-18.49 c 36.06,-7.86 66.57,-29.59 66.57,-66.58 v -60.1 c 0,-38.83 -26.81,-65.65 -65.65,-65.65 h -103.56 c -38.83,0 -65.64,26.82 -65.64,65.65 v 42.53 h 64.72 v -29.58 c 0,-10.17 5.55,-15.73 15.72,-15.73 h 72.12 c 10.17,0 15.72,5.56 15.72,15.73 v 35.13 c 0,10.17 -5.55,13.41 -15.72,15.72 l -85.99,18.49 c -36.06,7.86 -66.57,29.59 -66.57,66.57 v 56.4 c 0,38.84 26.81,65.65 65.64,65.65 h 98.02"
         id="path1587" /></clipPath><linearGradient
       x1="0"
       y1="0"
       x2="1"
       y2="0"
       gradientUnits="userSpaceOnUse"
       gradientTransform="matrix(0,748.371,748.371,0,2688.04,3357.12)"
       spreadMethod="pad"
       id="linearGradient1615"><stop
         style="stop-opacity:1;stop-color:#462315"
         offset="0"
         id="stop1591" /><stop
         style="stop-opacity:1;stop-color:#b5681d"
         offset="0.1"
         id="stop1593" /><stop
         style="stop-opacity:1;stop-color:#e7c05c"
         offset="0.15"
         id="stop1595" /><stop
         style="stop-opacity:1;stop-color:#ed9623"
         offset="0.22"
         id="stop1597" /><stop
         style="stop-opacity:1;stop-color:#9b4e1d"
         offset="0.34"
         id="stop1599" /><stop
         style="stop-opacity:1;stop-color:#e7a12f"
         offset="0.5"
         id="stop1601" /><stop
         style="stop-opacity:1;stop-color:#e7c05c"
         offset="0.568906"
         id="stop1603" /><stop
         style="stop-opacity:1;stop-color:#f9e65e"
         offset="0.66"
         id="stop1605" /><stop
         style="stop-opacity:1;stop-color:#e0c043"
         offset="0.72"
         id="stop1607" /><stop
         style="stop-opacity:1;stop-color:#e7c05c"
         offset="0.778223"
         id="stop1609" /><stop
         style="stop-opacity:1;stop-color:#a96e1d"
         offset="0.83"
         id="stop1611" /><stop
         style="stop-opacity:1;stop-color:#6b3818"
         offset="1"
         id="stop1613" /></linearGradient><clipPath
       clipPathUnits="userSpaceOnUse"
       id="clipPath1633"><path
         d="m 2354.53,6196.9 h -284.36 v -86.04 h 96.6 v -292.5 -8.59 h 8.59 73.99 8.58 v 8.59 292.5 h 88.01 8.59 v 8.59 68.86 8.59 z m 295.43,0 h -259.19 v -387.13 h 259.19 v 8.59 69.88 8.6 h -8.59 -159.43 v 67.07 h 127.57 8.59 v 8.59 69.88 8.6 h -8.59 -127.57 v 58.86 h 159.43 8.59 v 8.59 69.88 8.59 z m 623.21,0 h -382.41 l -2.49,-4.25 -60.96,-104.03 -61.42,104.06 -2.49,4.22 h -4.91 -86.32 -15.15 l 7.78,-13 105.29,-175.99 -108.41,-185.2 -7.57,-12.94 h 14.98 80.67 4.93 l 2.49,4.26 64.02,109.63 64.51,-109.65 2.49,-4.24 h 4.91 86.32 15.14 l -7.76,13 -107.87,180.62 104.84,180.6 5.02,8.66 v -4.34 -68.86 -8.59 h 8.6 88 v -292.5 -8.59 h 8.59 73.99 8.59 v 8.59 292.5 h 88.01 8.59 v 8.59 68.86 8.59 z m -1153.61,225.72 28.47,96.37 27.75,-96.37 h -56.22 z m 78.51,216.83 h -98.84 l -1.92,-5.96 -119.19,-369.94 -3.62,-11.23 h 11.79 76.56 6.41 l 1.82,6.15 22.85,77.09 h 106.84 l 22.36,-77.04 1.79,-6.2 h 6.46 79.64 11.79 l -3.62,11.23 -119.2,369.94 -1.92,5.96 z m 523.82,0 h -95.38 l -2.25,-5.12 -87.71,-199 -87.7,199 -2.26,5.12 h -5.61 -81.18 -8.59 v -8.59 -369.95 -8.59 h 8.59 69.88 8.59 v 8.59 204.67 l 63.66,-148.95 2.23,-5.22 h 5.67 53.44 5.68 l 2.22,5.22 63.66,148.95 v -204.67 -8.59 h 8.59 69.89 8.58 v 8.59 369.95 8.59 z m 155.15,-87.06 h 88 c 6.56,0 8.89,-2.33 8.89,-8.88 v -64.75 c 0,-6.55 -2.33,-8.87 -8.89,-8.87 h -88 v 82.5 z m 106.5,87.06 h -197.67 v -387.13 h 91.17 v 8.59 121.92 h 106.5 c 48.02,0 81.55,33.54 81.55,81.55 v 93.51 c 0,48.02 -33.53,81.56 -81.55,81.56 z m 215.13,0 h -91.17 v -387.13 h 246.34 v 8.59 69.88 8.59 h -8.6 -146.57 v 291.48 8.59 z m 453.16,0 h -259.19 v -387.13 h 259.19 v 8.59 69.88 8.59 h -8.59 -159.43 v 67.08 h 127.57 8.6 v 8.59 69.88 8.6 h -8.6 -127.57 v 58.86 h 159.43 8.59 v 8.59 69.88 8.59 z m -1776.51,2.05 h -108.93 c -48.02,0 -81.55,-33.53 -81.55,-81.55 v -62.68 c 0,-40.57 30.18,-71.37 80.75,-82.39 l 95.59,-20.55 c 10.68,-2.43 10.68,-4.51 10.68,-9.07 v -39.05 c 0,-6.56 -2.32,-8.88 -8.88,-8.88 h -80.15 c -6.56,0 -8.87,2.32 -8.87,8.88 v 32.88 8.6 h -8.6 -71.93 -8.59 v -8.6 -47.27 c 0,-48.02 33.53,-81.55 81.55,-81.55 h 115.09 c 48.02,0 81.56,33.53 81.56,81.55 v 66.8 c 0,40.56 -30.19,71.36 -80.75,82.38 l -95.6,20.56 c -10.68,2.42 -10.68,4.5 -10.68,9.06 v 34.95 c 0,6.55 2.32,8.87 8.88,8.87 h 73.99 c 6.55,0 8.87,-2.32 8.87,-8.87 v -28.78 -8.59 h 8.6 71.93 8.59 v 8.59 43.16 c 0,48.02 -33.54,81.55 -81.55,81.55 z m 470.62,-453.19 v -68.86 h -96.59 v -301.09 h -73.99 v 301.09 h -96.6 v 68.86 h 267.18 m 295.43,0 v -69.88 h -168.02 v -76.05 h 136.16 v -69.88 h -136.16 v -84.26 h 168.02 v -69.88 h -242.01 v 369.95 h 242.01 m 334.98,0 -107.39,-184.98 110.47,-184.97 h -86.32 l -71.93,122.29 -71.42,-122.29 h -80.67 l 110.98,189.59 -107.9,180.36 h 86.32 l 68.85,-116.64 68.34,116.64 h 80.67 m 288.23,0 v -68.86 h -96.6 v -301.09 h -73.99 v 301.09 h -96.59 v 68.86 h 267.18 m -1156.52,225.72 h 79.13 l -39.05,135.65 -40.08,-135.65 m 83.75,216.83 119.21,-369.95 h -79.64 l -24.15,83.24 h -119.72 l -24.66,-83.24 h -76.56 l 119.2,369.95 h 86.32 m 521.5,0 v -369.95 h -69.89 v 246.64 L 2563.27,6320 h -53.44 l -80.15,187.55 v -246.64 h -69.88 v 369.95 h 81.18 l 95.57,-216.83 95.57,216.83 h 81.19 m 155.14,-169.57 h 96.59 c 11.31,0 17.47,6.17 17.47,17.47 v 64.75 c 0,11.3 -6.16,17.47 -17.47,17.47 h -96.59 v -99.69 m 115.09,169.57 c 43.16,0 72.96,-29.81 72.96,-72.97 v -93.51 c 0,-43.16 -29.8,-72.95 -72.96,-72.95 h -115.09 v -130.52 h -73.99 v 369.95 h 189.08 m 206.54,0 v -300.07 h 155.16 v -69.88 h -229.16 v 369.95 h 74 m 453.16,0 v -69.88 h -168.02 v -76.05 h 136.16 v -69.88 h -136.16 v -84.26 h 168.02 v -69.88 h -242.01 v 369.95 h 242.01 m -1767.92,2.06 c 43.16,0 72.96,-29.81 72.96,-72.97 v -43.16 h -71.93 v 28.78 c 0,11.3 -6.17,17.47 -17.47,17.47 h -73.99 c -11.31,0 -17.47,-6.17 -17.47,-17.47 v -34.95 c 0,-11.3 6.16,-14.9 17.47,-17.47 l 95.56,-20.54 c 40.08,-8.74 73.99,-32.89 73.99,-73.99 v -66.8 c 0,-43.16 -29.8,-72.96 -72.96,-72.96 h -115.09 c -43.16,0 -72.96,29.8 -72.96,72.96 v 47.27 h 71.93 v -32.88 c 0,-11.31 6.17,-17.47 17.47,-17.47 h 80.15 c 11.31,0 17.47,6.16 17.47,17.47 v 39.05 c 0,11.3 -6.16,14.9 -17.47,17.47 l -95.56,20.55 c -40.08,8.73 -73.99,32.88 -73.99,73.99 v 62.68 c 0,43.16 29.8,72.97 72.96,72.97 h 108.93"
         id="path1631" /></clipPath><linearGradient
       x1="0"
       y1="0"
       x2="1"
       y2="0"
       gradientUnits="userSpaceOnUse"
       gradientTransform="matrix(0,831.735,831.735,0,2668.33,5809.77)"
       spreadMethod="pad"
       id="linearGradient1659"><stop
         style="stop-opacity:1;stop-color:#462315"
         offset="0"
         id="stop1635" /><stop
         style="stop-opacity:1;stop-color:#b5681d"
         offset="0.1"
         id="stop1637" /><stop
         style="stop-opacity:1;stop-color:#e7c05c"
         offset="0.15"
         id="stop1639" /><stop
         style="stop-opacity:1;stop-color:#ed9623"
         offset="0.22"
         id="stop1641" /><stop
         style="stop-opacity:1;stop-color:#9b4e1d"
         offset="0.34"
         id="stop1643" /><stop
         style="stop-opacity:1;stop-color:#e7a12f"
         offset="0.5"
         id="stop1645" /><stop
         style="stop-opacity:1;stop-color:#e7c05c"
         offset="0.568906"
         id="stop1647" /><stop
         style="stop-opacity:1;stop-color:#f9e65e"
         offset="0.66"
         id="stop1649" /><stop
         style="stop-opacity:1;stop-color:#e0c043"
         offset="0.72"
         id="stop1651" /><stop
         style="stop-opacity:1;stop-color:#e7c05c"
         offset="0.778223"
         id="stop1653" /><stop
         style="stop-opacity:1;stop-color:#a96e1d"
         offset="0.83"
         id="stop1655" /><stop
         style="stop-opacity:1;stop-color:#6b3818"
         offset="1"
         id="stop1657" /></linearGradient><clipPath
       clipPathUnits="userSpaceOnUse"
       id="clipPath1675"><path
         d="m 6646.79,1569.6 23.84,80.7 23.24,-80.7 h -47.08 z m 71.95,202.06 h -95.01 l -2.24,-6.93 -111.09,-344.75 -4.21,-13.07 h 13.73 71.35 7.46 l 2.13,7.16 20.87,70.41 h 96.58 l 20.4,-70.35 2.1,-7.22 h 7.51 74.22 13.73 l -4.21,13.07 -111.08,344.75 -2.24,6.93 z m 488.66,0 h -92.18 l -2.62,-5.97 -79.91,-181.3 -79.92,181.3 -2.62,5.97 h -6.53 -75.65 -10 v -10 -344.75 -10 h 10 65.13 10 v 10 181 l 55.49,-129.85 2.6,-6.08 h 6.6 49.8 6.6 l 2.6,6.08 55.5,129.85 v -181 -10 h 10 65.11 10 v 10 344.75 10 z m 144.55,-85.12 h 80.02 c 4.99,0 6.28,-1.29 6.28,-6.28 v -60.33 c 0,-4.99 -1.29,-6.28 -6.28,-6.28 h -80.02 v 72.89 z m 97.26,85.12 H 7263 v -364.75 h 88.95 v 10 111.63 h 97.26 c 45.92,0 77.99,32.07 77.99,77.98 v 87.15 c 0,45.92 -32.07,77.99 -77.99,77.99 z m 202.44,0 h -88.95 v -364.75 h 233.55 v 10 65.12 10 h -10 -134.6 v 269.63 10 z m 422.29,0 h -245.53 v -364.75 h 245.53 v 10 65.12 10 h -10 -146.58 v 58.53 h 116.89 10 v 10 65.12 10 h -10 -116.89 v 50.86 h 146.58 10 v 10 65.12 10 z m 398.8,0 h -268.98 v -84.16 h 90.02 v -270.59 -10 h 10 68.94 10 v 10 270.59 h 80.02 10 v 10 64.16 10 z m 856.01,0 h -359.48 l -2.9,-4.94 -55.08,-94.02 -55.52,94.05 -2.9,4.91 h -5.71 -80.44 -17.64 l 9.05,-15.14 97.51,-162.98 -100.43,-171.58 -7.19,-12.27 v 7.22 65.12 10 h -10 -146.57 v 58.53 h 116.88 10 v 10 65.12 10 h -10 -116.88 v 50.86 h 146.57 10 v 10 65.12 10 h -10 -225.53 -10 v -10 -344.75 -10 h 10 225.53 8.38 17.44 75.17 5.75 l 2.89,4.96 57.96,99.22 58.37,-99.24 2.9,-4.94 h 5.73 80.44 17.61 l -9.03,15.13 -99.92,167.32 97.12,167.28 0.94,1.62 v -60.76 -10 h 10 80.02 v -270.59 -10 h 10 68.94 10 v 10 270.59 h 80.02 10 v 10 64.16 10 z m -2912.22,1.92 h -101.51 c -45.92,0 -77.99,-32.07 -77.99,-77.99 v -58.42 c 0,-38.81 28.72,-68.24 76.82,-78.71 l 89.09,-19.16 c 8.38,-1.92 8.38,-2.88 8.38,-6.51 v -36.39 c 0,-4.99 -1.29,-6.28 -6.28,-6.28 h -74.7 c -4.99,0 -6.28,1.29 -6.28,6.28 v 30.64 10 h -10 -67.03 -10 v -10 -44.05 c 0,-45.92 32.07,-77.99 77.99,-77.99 h 107.26 c 45.92,0 77.99,32.07 77.99,77.99 v 62.24 c 0,38.81 -28.72,68.24 -76.82,78.73 l -89.09,19.16 c -8.38,1.9 -8.38,2.88 -8.38,6.5 v 32.56 c 0,4.99 1.29,6.28 6.28,6.28 h 68.95 c 4.99,0 6.28,-1.29 6.28,-6.28 v -26.81 -10 h 10 67.03 10 v 10 40.22 c 0,45.92 -32.07,77.99 -77.99,77.99 z m 216.88,-213.98 h 73.74 l -36.4,126.42 -37.34,-126.42 m 78.05,202.06 111.08,-344.75 h -74.22 l -22.5,77.57 h -111.56 l -22.99,-77.57 h -71.35 l 111.1,344.75 h 80.44 m 485.94,0 v -344.75 h -65.11 v 229.84 l -74.7,-174.77 h -49.8 l -74.69,174.77 v -229.84 h -65.13 v 344.75 h 75.65 l 89.07,-202.06 89.06,202.06 h 75.65 m 144.55,-158.01 h 90.02 c 10.54,0 16.28,5.75 16.28,16.28 v 60.33 c 0,10.54 -5.74,16.28 -16.28,16.28 h -90.02 v -92.89 m 107.26,158.01 c 40.22,0 67.99,-27.76 67.99,-67.99 v -87.15 c 0,-40.21 -27.77,-67.98 -67.99,-67.98 H 7341.95 V 1416.91 H 7273 v 344.75 h 176.21 m 192.44,0 v -279.63 h 144.6 v -65.12 H 7572.7 v 344.75 h 68.95 m 422.29,0 v -65.12 h -156.58 v -70.86 h 126.89 v -65.12 h -126.89 v -78.53 h 156.58 v -65.12 h -225.53 v 344.75 h 225.53 m 398.8,0 v -64.16 h -90.02 v -280.59 h -68.94 v 280.59 h -90.02 v 64.16 h 248.98 m 275.28,0 v -65.12 h -156.57 v -70.86 h 126.88 v -65.12 h -126.88 v -78.53 h 156.57 v -65.12 h -225.53 v 344.75 h 225.53 m 312.16,0 -100.07,-172.37 102.94,-172.38 h -80.44 l -67.03,113.96 -66.57,-113.96 h -75.17 l 103.43,176.69 -100.55,168.06 h 80.44 l 64.16,-108.69 63.68,108.69 h 75.18 m 268.57,0 v -64.16 h -90.02 v -280.59 h -68.94 v 280.59 h -90.02 v 64.16 h 248.98 m -2902.22,1.92 c 40.23,0 67.99,-27.77 67.99,-67.99 v -40.22 h -67.03 v 26.81 c 0,10.53 -5.74,16.28 -16.28,16.28 h -68.95 c -10.53,0 -16.28,-5.75 -16.28,-16.28 v -32.56 c 0,-10.54 5.75,-13.89 16.28,-16.28 l 89.06,-19.15 c 37.35,-8.15 68.95,-30.65 68.95,-68.96 v -62.24 c 0,-40.22 -27.77,-67.99 -67.99,-67.99 h -107.26 c -40.22,0 -67.99,27.77 -67.99,67.99 v 44.05 h 67.03 v -30.64 c 0,-10.54 5.75,-16.28 16.28,-16.28 h 74.7 c 10.54,0 16.28,5.74 16.28,16.28 v 36.39 c 0,10.53 -5.74,13.88 -16.28,16.28 l -89.06,19.15 c -37.35,8.14 -68.95,30.65 -68.95,68.95 v 58.42 c 0,40.22 27.77,67.99 67.99,67.99 h 101.51"
         id="path1673" /></clipPath><linearGradient
       x1="0"
       y1="0"
       x2="1"
       y2="0"
       gradientUnits="userSpaceOnUse"
       gradientTransform="matrix(0,368.584,368.584,0,7782.89,1405)"
       spreadMethod="pad"
       id="linearGradient1701"><stop
         style="stop-opacity:1;stop-color:#462315"
         offset="0"
         id="stop1677" /><stop
         style="stop-opacity:1;stop-color:#b5681d"
         offset="0.1"
         id="stop1679" /><stop
         style="stop-opacity:1;stop-color:#e7c05c"
         offset="0.15"
         id="stop1681" /><stop
         style="stop-opacity:1;stop-color:#ed9623"
         offset="0.22"
         id="stop1683" /><stop
         style="stop-opacity:1;stop-color:#9b4e1d"
         offset="0.34"
         id="stop1685" /><stop
         style="stop-opacity:1;stop-color:#e7a12f"
         offset="0.5"
         id="stop1687" /><stop
         style="stop-opacity:1;stop-color:#e7c05c"
         offset="0.568906"
         id="stop1689" /><stop
         style="stop-opacity:1;stop-color:#f9e65e"
         offset="0.66"
         id="stop1691" /><stop
         style="stop-opacity:1;stop-color:#e0c043"
         offset="0.72"
         id="stop1693" /><stop
         style="stop-opacity:1;stop-color:#e7c05c"
         offset="0.778223"
         id="stop1695" /><stop
         style="stop-opacity:1;stop-color:#a96e1d"
         offset="0.83"
         id="stop1697" /><stop
         style="stop-opacity:1;stop-color:#6b3818"
         offset="1"
         id="stop1699" /></linearGradient><clipPath
       clipPathUnits="userSpaceOnUse"
       id="clipPath1717"><path
         d="m 6646.79,3860.3 23.84,80.71 23.24,-80.71 h -47.08 z m 71.95,202.07 h -95.01 l -2.24,-6.94 -111.09,-344.75 -4.21,-13.06 h 13.73 71.35 7.46 l 2.13,7.16 20.87,70.41 h 96.58 l 20.4,-70.36 2.1,-7.21 h 7.51 74.22 13.73 l -4.21,13.06 -111.08,344.75 -2.24,6.94 z m 488.66,0 h -92.18 l -2.62,-5.97 -79.91,-181.3 -79.92,181.3 -2.62,5.97 h -6.53 -75.65 -10 v -10 -344.75 -10 h 10 65.13 10 v 10 180.99 l 55.49,-129.85 2.6,-6.07 h 6.6 49.8 6.6 l 2.6,6.07 55.5,129.85 v -180.99 -10 h 10 65.11 10 v 10 344.75 10 z m 144.55,-85.12 h 80.02 c 4.99,0 6.28,-1.29 6.28,-6.28 v -60.33 c 0,-4.99 -1.29,-6.28 -6.28,-6.28 h -80.02 v 72.89 z m 97.26,85.12 H 7263 v -364.75 h 88.95 v 10 111.62 h 97.26 c 45.92,0 77.99,32.07 77.99,77.99 v 87.15 c 0,45.92 -32.07,77.99 -77.99,77.99 z m 202.44,0 h -88.95 v -364.75 h 233.55 v 10 65.11 10 h -10 -134.6 v 269.64 10 z m 422.29,0 h -245.53 v -364.75 h 245.53 v 10 65.11 10 h -10 -146.58 v 58.53 h 116.89 10 v 10 65.13 10 h -10 -116.89 v 50.86 h 146.58 10 v 10 65.12 10 z m 398.8,0 h -268.98 v -84.16 h 90.02 v -270.59 -10 h 10 68.94 10 v 10 270.59 h 80.02 10 v 10 64.16 10 z m 856.01,0 h -359.48 l -2.9,-4.95 -55.08,-94.02 -55.52,94.05 -2.9,4.92 h -5.71 -80.44 -17.64 l 9.05,-15.14 97.51,-162.97 -100.43,-171.58 -7.19,-12.29 v 7.23 65.11 10 h -10 -146.57 v 58.53 h 116.88 10 v 10 65.13 10 h -10 -116.88 v 50.86 h 146.57 10 v 10 65.12 10 h -10 -225.53 -10 v -10 -344.75 -10 h 10 225.53 8.38 17.44 75.17 5.75 l 2.89,4.96 57.96,99.22 58.37,-99.25 2.9,-4.93 h 5.73 80.44 17.61 l -9.03,15.12 -99.92,167.33 97.12,167.28 0.94,1.62 v -60.76 -10 h 10 80.02 v -270.59 -10 h 10 68.94 10 v 10 270.59 h 80.02 10 v 10 64.16 10 z m -2912.22,1.92 h -101.51 c -45.92,0 -77.99,-32.07 -77.99,-78 v -58.41 c 0,-38.82 28.72,-68.24 76.82,-78.72 l 89.09,-19.16 c 8.38,-1.9 8.38,-2.88 8.38,-6.5 v -36.4 c 0,-4.98 -1.29,-6.28 -6.28,-6.28 h -74.7 c -4.99,0 -6.28,1.3 -6.28,6.28 v 30.64 10 h -10 -67.03 -10 v -10 -44.05 c 0,-45.92 32.07,-77.99 77.99,-77.99 h 107.26 c 45.92,0 77.99,32.07 77.99,77.99 v 62.25 c 0,38.81 -28.72,68.24 -76.82,78.73 l -89.09,19.15 c -8.38,1.91 -8.38,2.88 -8.38,6.51 v 32.56 c 0,4.98 1.29,6.28 6.28,6.28 h 68.95 c 4.99,0 6.28,-1.3 6.28,-6.28 v -26.81 -10 h 10 67.03 10 v 10 40.21 c 0,45.93 -32.07,78 -77.99,78 z m 216.88,-213.99 h 73.74 l -36.4,126.42 -37.34,-126.42 m 78.05,202.07 111.08,-344.75 h -74.22 l -22.5,77.57 h -111.56 l -22.99,-77.57 h -71.35 l 111.1,344.75 h 80.44 m 485.94,0 v -344.75 h -65.11 v 229.84 l -74.7,-174.77 h -49.8 l -74.69,174.77 v -229.84 h -65.13 v 344.75 h 75.65 l 89.07,-202.07 89.06,202.07 h 75.65 m 144.55,-158.01 h 90.02 c 10.54,0 16.28,5.75 16.28,16.28 v 60.33 c 0,10.54 -5.74,16.28 -16.28,16.28 h -90.02 v -92.89 m 107.26,158.01 c 40.22,0 67.99,-27.77 67.99,-67.99 v -87.15 c 0,-40.22 -27.77,-67.99 -67.99,-67.99 H 7341.95 V 3707.62 H 7273 v 344.75 h 176.21 m 192.44,0 v -279.64 h 144.6 v -65.11 H 7572.7 v 344.75 h 68.95 m 422.29,0 v -65.12 h -156.58 v -70.86 h 126.89 v -65.13 h -126.89 v -78.53 h 156.58 v -65.11 h -225.53 v 344.75 h 225.53 m 398.8,0 v -64.16 h -90.02 v -280.59 h -68.94 v 280.59 h -90.02 v 64.16 h 248.98 m 275.28,0 v -65.12 h -156.57 v -70.86 h 126.88 v -65.13 h -126.88 v -78.53 h 156.57 v -65.11 h -225.53 v 344.75 h 225.53 m 312.16,0 -100.07,-172.38 102.94,-172.37 h -80.44 l -67.03,113.95 -66.57,-113.95 h -75.17 l 103.43,176.69 -100.55,168.06 h 80.44 l 64.16,-108.69 63.68,108.69 h 75.18 m 268.57,0 v -64.16 h -90.02 v -280.59 h -68.94 v 280.59 h -90.02 v 64.16 h 248.98 m -2902.22,1.92 c 40.23,0 67.99,-27.77 67.99,-68 v -40.21 h -67.03 v 26.81 c 0,10.53 -5.74,16.28 -16.28,16.28 h -68.95 c -10.53,0 -16.28,-5.75 -16.28,-16.28 v -32.56 c 0,-10.54 5.75,-13.89 16.28,-16.28 l 89.06,-19.15 c 37.35,-8.15 68.95,-30.65 68.95,-68.96 v -62.25 c 0,-40.21 -27.77,-67.99 -67.99,-67.99 h -107.26 c -40.22,0 -67.99,27.78 -67.99,67.99 v 44.05 h 67.03 v -30.64 c 0,-10.54 5.75,-16.28 16.28,-16.28 h 74.7 c 10.54,0 16.28,5.74 16.28,16.28 v 36.4 c 0,10.52 -5.74,13.87 -16.28,16.28 l -89.06,19.15 c -37.35,8.13 -68.95,30.64 -68.95,68.95 v 58.41 c 0,40.23 27.77,68 67.99,68 h 101.51"
         id="path1715" /></clipPath><linearGradient
       x1="0"
       y1="0"
       x2="1"
       y2="0"
       gradientUnits="userSpaceOnUse"
       gradientTransform="matrix(0,368.584,368.584,0,7782.89,3695.71)"
       spreadMethod="pad"
       id="linearGradient1743"><stop
         style="stop-opacity:1;stop-color:#462315"
         offset="0"
         id="stop1719" /><stop
         style="stop-opacity:1;stop-color:#b5681d"
         offset="0.1"
         id="stop1721" /><stop
         style="stop-opacity:1;stop-color:#e7c05c"
         offset="0.15"
         id="stop1723" /><stop
         style="stop-opacity:1;stop-color:#ed9623"
         offset="0.22"
         id="stop1725" /><stop
         style="stop-opacity:1;stop-color:#9b4e1d"
         offset="0.34"
         id="stop1727" /><stop
         style="stop-opacity:1;stop-color:#e7a12f"
         offset="0.5"
         id="stop1729" /><stop
         style="stop-opacity:1;stop-color:#e7c05c"
         offset="0.568906"
         id="stop1731" /><stop
         style="stop-opacity:1;stop-color:#f9e65e"
         offset="0.66"
         id="stop1733" /><stop
         style="stop-opacity:1;stop-color:#e0c043"
         offset="0.72"
         id="stop1735" /><stop
         style="stop-opacity:1;stop-color:#e7c05c"
         offset="0.778223"
         id="stop1737" /><stop
         style="stop-opacity:1;stop-color:#a96e1d"
         offset="0.83"
         id="stop1739" /><stop
         style="stop-opacity:1;stop-color:#6b3818"
         offset="1"
         id="stop1741" /></linearGradient><clipPath
       clipPathUnits="userSpaceOnUse"
       id="clipPath1759"><path
         d="m 6498.19,6309.05 24.8,83.95 24.17,-83.95 h -48.97 z m 74.85,210.19 h -98.83 l -2.33,-7.21 -115.56,-358.62 -4.39,-13.6 h 14.29 74.22 7.76 l 2.21,7.45 21.71,73.25 h 100.47 l 21.23,-73.19 2.18,-7.51 h 7.81 77.21 14.28 l -4.38,13.6 -115.56,358.62 -2.32,7.21 z m 508.34,0 h -95.89 l -2.74,-6.2 -83.12,-188.6 -83.14,188.6 -2.73,6.2 h -6.79 -78.69 -10.41 v -10.4 -358.63 -10.4 h 10.41 67.75 10.4 v 10.4 188.29 l 57.73,-135.09 2.71,-6.31 h 6.86 51.8 6.86 l 2.71,6.31 57.73,135.09 v -188.29 -10.4 h 10.4 67.75 10.4 v 10.4 358.63 10.4 z m 150.37,-88.54 h 83.24 c 5.19,0 6.53,-1.34 6.53,-6.53 v -62.76 c 0,-5.19 -1.34,-6.54 -6.53,-6.54 h -83.24 v 75.83 z m 101.17,88.54 h -193.71 v -379.43 h 92.54 v 10.4 116.12 h 101.17 c 47.76,0 81.12,33.36 81.12,81.13 v 90.66 c 0,47.76 -33.36,81.12 -81.12,81.12 z m 210.59,0 h -92.53 v -379.43 h 242.95 v 10.4 67.74 10.41 h -10.4 -140.02 v 280.48 10.4 z m 439.28,0 h -255.41 v -379.43 h 255.41 v 10.4 67.74 10.41 h -10.4 -152.47 v 60.88 h 121.58 10.41 v 10.4 67.75 10.4 h -10.41 -121.58 v 52.91 h 152.47 10.4 v 10.4 67.74 10.4 z m 414.87,0 h -279.82 v -87.55 h 93.64 v -281.48 -10.4 h 10.41 71.72 10.4 v 10.4 281.48 h 83.25 10.4 v 10.41 66.74 10.4 z m 890.47,0 h -373.96 l -3.01,-5.14 -57.3,-97.81 -57.76,97.84 -3.01,5.11 h -5.94 -83.68 -18.35 l 9.42,-15.74 101.44,-169.54 -104.49,-178.49 -7.48,-12.77 v 7.51 67.74 10.41 h -10.4 -152.47 v 60.88 h 121.58 10.41 v 10.4 67.75 10.4 h -10.41 -121.58 v 52.91 h 152.47 10.4 v 10.4 67.74 10.4 h -10.4 -234.61 -10.4 v -10.4 -358.63 -10.4 h 10.4 234.61 8.71 18.15 78.2 5.98 l 3.01,5.16 60.29,103.22 60.73,-103.25 3.02,-5.13 h 5.95 83.67 18.33 l -9.4,15.74 -103.94,174.05 101.02,174.02 0.98,1.69 v -63.21 -10.41 h 10.4 83.24 v -281.48 -10.4 h 10.41 71.72 10.4 v 10.4 281.48 h 83.24 10.41 v 10.41 66.74 10.4 z m -3029.46,2.01 h -105.6 c -47.77,0 -81.13,-33.37 -81.13,-81.14 v -60.77 c 0,-40.38 29.88,-70.99 79.91,-81.89 l 92.67,-19.93 c 8.72,-1.98 8.72,-2.99 8.72,-6.76 v -37.86 c 0,-5.19 -1.34,-6.53 -6.53,-6.53 H 6169 c -5.18,0 -6.53,1.34 -6.53,6.53 v 31.88 10.4 h -10.4 -69.73 -10.4 v -10.4 -45.83 c 0,-47.76 33.36,-81.13 81.13,-81.13 h 111.57 c 47.77,0 81.14,33.37 81.14,81.13 v 64.75 c 0,40.37 -29.88,70.99 -79.92,81.9 l -92.68,19.93 c -8.72,1.98 -8.72,2.99 -8.72,6.76 v 33.87 c 0,5.19 1.35,6.53 6.54,6.53 h 71.72 c 5.2,0 6.54,-1.34 6.54,-6.53 v -27.89 -10.4 h 10.41 69.72 10.4 v 10.4 41.84 c 0,47.77 -33.35,81.14 -81.12,81.14 z m 225.61,-222.6 h 76.71 l -37.86,131.5 -38.85,-131.5 m 81.18,210.19 115.56,-358.63 h -77.21 l -23.4,80.7 h -116.05 l -23.92,-80.7 h -74.22 l 115.57,358.63 h 83.67 m 505.52,0 v -358.63 h -67.75 v 239.09 l -77.7,-181.8 h -51.8 l -77.7,181.8 v -239.09 h -67.75 v 358.63 h 78.69 l 92.66,-210.19 92.65,210.19 h 78.7 m 150.37,-164.37 h 93.64 c 10.96,0 16.93,5.99 16.93,16.94 v 62.76 c 0,10.96 -5.97,16.93 -16.93,16.93 h -93.64 v -96.63 m 111.57,164.37 c 41.85,0 70.72,-28.88 70.72,-70.72 v -90.66 c 0,-41.84 -28.87,-70.73 -70.72,-70.73 h -111.57 v -126.52 h -71.74 v 358.63 h 183.31 m 200.19,0 v -290.89 h 150.42 v -67.74 h -222.15 v 358.63 h 71.73 m 439.28,0 v -67.74 h -162.88 v -73.71 h 131.99 v -67.75 h -131.99 v -81.69 h 162.88 v -67.74 h -234.61 v 358.63 h 234.61 m 414.87,0 v -66.74 h -93.65 v -291.89 h -71.72 v 291.89 h -93.64 v 66.74 h 259.01 m 286.35,0 v -67.74 h -162.88 v -73.71 h 131.99 v -67.75 h -131.99 v -81.69 h 162.88 v -67.74 H 8439 v 358.63 h 234.61 m 324.73,0 -104.1,-179.31 107.08,-179.32 h -83.67 l -69.74,118.55 -69.24,-118.55 h -78.2 l 107.6,183.81 -104.6,174.82 h 83.68 l 66.74,-113.06 66.25,113.06 h 78.2 m 279.38,0 v -66.74 h -93.64 v -291.89 h -71.72 v 291.89 h -93.65 v 66.74 h 259.01 m -3019.05,2 c 41.84,0 70.72,-28.89 70.72,-70.73 v -41.84 h -69.72 v 27.89 c 0,10.96 -5.98,16.94 -16.95,16.94 H 6171 c -10.95,0 -16.94,-5.98 -16.94,-16.94 v -33.87 c 0,-10.96 5.99,-14.44 16.94,-16.93 l 92.64,-19.93 c 38.86,-8.47 71.74,-31.88 71.74,-71.73 v -64.75 c 0,-41.83 -28.9,-70.72 -70.74,-70.72 h -111.57 c -41.84,0 -70.73,28.89 -70.73,70.72 v 45.83 h 69.73 v -31.88 c 0,-10.96 5.99,-16.93 16.93,-16.93 h 77.71 c 10.97,0 16.93,5.97 16.93,16.93 v 37.86 c 0,10.95 -5.96,14.44 -16.93,16.94 l -92.65,19.92 c -38.85,8.46 -71.72,31.88 -71.72,71.72 v 60.77 c 0,41.84 28.89,70.73 70.73,70.73 h 105.6"
         id="path1757" /></clipPath><linearGradient
       x1="0"
       y1="0"
       x2="1"
       y2="0"
       gradientUnits="userSpaceOnUse"
       gradientTransform="matrix(0,383.423,383.423,0,7680.03,6137.82)"
       spreadMethod="pad"
       id="linearGradient1785"><stop
         style="stop-opacity:1;stop-color:#462315"
         offset="0"
         id="stop1761" /><stop
         style="stop-opacity:1;stop-color:#b5681d"
         offset="0.1"
         id="stop1763" /><stop
         style="stop-opacity:1;stop-color:#e7c05c"
         offset="0.15"
         id="stop1765" /><stop
         style="stop-opacity:1;stop-color:#ed9623"
         offset="0.22"
         id="stop1767" /><stop
         style="stop-opacity:1;stop-color:#9b4e1d"
         offset="0.34"
         id="stop1769" /><stop
         style="stop-opacity:1;stop-color:#e7a12f"
         offset="0.5"
         id="stop1771" /><stop
         style="stop-opacity:1;stop-color:#e7c05c"
         offset="0.568906"
         id="stop1773" /><stop
         style="stop-opacity:1;stop-color:#f9e65e"
         offset="0.66"
         id="stop1775" /><stop
         style="stop-opacity:1;stop-color:#e0c043"
         offset="0.72"
         id="stop1777" /><stop
         style="stop-opacity:1;stop-color:#e7c05c"
         offset="0.778223"
         id="stop1779" /><stop
         style="stop-opacity:1;stop-color:#a96e1d"
         offset="0.83"
         id="stop1781" /><stop
         style="stop-opacity:1;stop-color:#6b3818"
         offset="1"
         id="stop1783" /></linearGradient></defs><sodipodi:namedview
     pagecolor="#ffffff"
     bordercolor="#666666"
     borderopacity="1"
     objecttolerance="10"
     gridtolerance="10"
     guidetolerance="10"
     inkscape:pageopacity="0"
     inkscape:pageshadow="2"
     inkscape:window-width="1352"
     inkscape:window-height="753"
     id="namedview981"
     showgrid="false"
     inkscape:zoom="0.36636743"
     inkscape:cx="790.1807"
     inkscape:cy="236.62305"
     inkscape:window-x="-3"
     inkscape:window-y="34"
     inkscape:window-maximized="0"
     inkscape:current-layer="g989" /><g
     id="g987"
     inkscape:groupmode="layer"
     inkscape:label="ink_ext_XXXXXX"
     transform="matrix(1.3333333,0,0,-1.3333333,0,1040)"><g
       id="g989"
       transform="scale(0.1)"><path
         d="m 10135.092,7216.9419 h 187.772 v -443.982 c 24.492,-7.1056 48.207,-15.4981 70.949,-25.1091 48.984,-20.7143 93.497,-47.0693 131.79,-77.8601 47.624,-38.1428 85.917,-83.1038 111.77,-132.5004 24.88,-47.4801 38.487,-99.0948 38.487,-152.722 v -334.9888 c 0,-53.6546 -13.607,-105.2692 -38.487,-152.7492 -25.853,-49.3557 -64.146,-94.3166 -111.77,-132.4731 -38.293,-30.7771 -82.806,-57.1732 -131.79,-77.8602 -22.742,-9.6109 -46.457,-18.0445 -70.949,-25.1227 v -311.7444 -55.036 -77.2303 h -109.631 -78.141 -308.4636 c -21.0321,-21.5318 -44.1828,-41.9065 -69.1414,-60.9615 -39.3232,-30.094 -83.6421,-56.9295 -131.8875,-79.7659 -55.9623,-26.4782 -116.9007,-47.3144 -181.4158,-61.39 -63.2127,-13.7976 -129.2439,-21.2044 -196.6358,-21.2044 H 1772.5877 c -67.3724,0 -133.4231,7.4068 -196.6747,21.2044 -64.4956,14.0756 -125.4729,34.9118 -181.3769,61.39 -48.2648,22.8624 -92.5837,49.6993 -131.8875,79.7659 -24.9779,19.055 -48.1481,39.4297 -69.1802,60.9615 H 885.02468 806.92239 697.29151 v 77.2303 55.036 311.7444 c -24.49201,7.0782 -48.18705,15.5118 -70.94907,25.1227 -49.00345,20.687 -93.49726,47.0693 -131.8875,77.8602 -47.5456,38.1565 -85.83865,83.1174 -111.65245,132.4731 -24.84189,47.48 -38.6235,99.0946 -38.6235,152.7492 v 334.9888 c 0,53.6272 13.78161,105.2419 38.6235,152.722 25.8138,49.3966 64.10685,94.3576 111.65245,132.5004 38.39024,30.7908 82.88405,57.1595 131.94582,77.8601 22.7037,9.611 46.34043,18.0035 70.89075,25.1091 v 311.7142 55.0649 77.2029 h 109.63088 78.10229 308.44372 c 21.0321,21.5357 44.2023,41.9352 69.1802,61.0066 39.3038,30.0515 83.6227,56.8993 131.8875,79.7494 55.904,26.4508 116.8813,47.2884 181.4547,61.4174 63.1738,13.8141 129.1661,21.2209 196.5969,21.2209 h 7474.9602 c 67.4113,0 133.4231,-7.4068 196.597,-21.2209 64.5539,-14.129 125.4923,-34.9666 181.4546,-61.4174 48.2454,-22.8501 92.5643,-49.6705 131.8875,-79.7494 24.9586,-19.0714 48.1093,-39.4709 69.1414,-61.0066 h 308.4636 v 0"
         style="fill:url(#linearGradient1285);fill-opacity:1;fill-rule:evenodd;stroke:none;stroke-width:1.63133"
         id="path1287" /><path
         d="m 9670.5015,7029.6641 -21.2847,31.1879 c -40.2174,58.7613 -99.6008,107.9116 -171.1136,141.7418 -67.5668,31.9682 -146.4855,50.4099 -230.5553,50.4099 H 1772.5877 c -84.0309,0 -163.0079,-18.4417 -230.5553,-50.4099 -71.4739,-33.8302 -130.9156,-82.9805 -171.0747,-141.7418 l -21.343,-31.1879 h -48.8674 -337.56202 v -361.6723 -53.8737 l -76.89713,-0.9446 c -74.33129,-0.9447 -142.53958,-26.1359 -192.33999,-66.0997 -51.76366,-41.5107 -83.81709,-98.8756 -83.81709,-162.2918 v -335.0161 c 0,-63.4299 32.05343,-120.7811 83.81709,-162.2919 49.85872,-39.9911 118.0087,-65.1687 192.33999,-66.1133 l 76.89713,-0.9584 v -53.8736 -361.6573 h 337.56202 48.8674 l 21.343,-31.1892 c 40.1591,-58.7641 99.6008,-107.8952 171.0747,-141.7432 67.5474,-31.9655 146.5244,-50.4099 230.5553,-50.4099 h 7474.9602 c 84.0698,0 162.9885,18.4444 230.5553,50.4099 71.5322,33.874 130.8962,82.9791 171.1136,141.7432 l 21.2847,31.1892 h 48.9257 337.5228 v 361.6573 53.8736 l 76.975,0.9584 c 74.254,0.9446 142.482,26.1222 192.244,66.1133 51.705,41.5108 83.778,98.862 83.778,162.2919 v 335.0161 c 0,63.4162 -32.073,120.7811 -83.778,162.2918 -49.762,39.9638 -117.99,65.155 -192.244,66.0997 l -76.975,0.9446 v 53.8737 361.6723 h -337.5228 z m 464.5905,110.0885 h 78.141 v -423.1581 c 89.415,-13.5677 169.112,-48.3563 230.147,-97.2738 76.003,-60.856 122.849,-143.8228 122.849,-234.5387 v -335.0161 c 0,-90.7433 -46.846,-173.6827 -122.849,-234.5524 -61.035,-48.9313 -140.732,-83.7062 -230.147,-97.2601 v -368.1345 -55.025 h -78.141 -368.7801 c -50.9084,-62.5496 -120.0497,-115.4266 -201.4953,-153.9897 -92.9336,-43.993 -201.5537,-69.3485 -317.2687,-69.3485 H 1772.5877 c -115.7344,0 -224.2768,25.3555 -317.2492,69.3485 -81.5234,38.5631 -150.6064,91.4401 -201.5342,153.9897 H 885.02468 806.92239 v 55.025 368.1345 c -89.51245,13.5539 -169.2281,48.3288 -230.22485,97.2601 -75.84747,60.8697 -122.88767,143.8091 -122.88767,234.5524 v 335.0161 c 0,90.7159 47.0402,173.6827 122.88767,234.5387 60.99675,48.9175 140.7124,83.7061 230.22485,97.2738 v 368.107 55.0511 h 78.10229 368.77962 c 50.9278,62.54 120.0108,115.4279 201.5342,153.9952 92.9724,43.9751 201.5148,69.3444 317.2492,69.3444 h 7474.9602 c 115.715,0 224.3351,-25.3693 317.2687,-69.3444 81.4456,-38.5673 150.5869,-91.4552 201.4953,-153.9952 h 368.7801 v 0"
         style="fill:url(#linearGradient1303);fill-opacity:1;fill-rule:evenodd;stroke:none;stroke-width:1.63133"
         id="path1305" /><path
         d="m 10135.092,7084.7015 h -415.6648 c -90.7176,132.6511 -268.5179,223.3396 -471.8793,223.3396 H 1772.5877 c -203.3614,0 -381.1617,-90.6885 -471.8404,-223.3396 H 885.02468 V 6667.9918 C 690.31323,6665.5411 531.97047,6539.0647 531.97047,6384.782 v -335.0161 c 0,-154.3238 158.34276,-280.7866 353.05421,-283.2372 v -416.7098 h 415.72262 c 90.6787,-132.651 268.479,-223.3108 471.8404,-223.3108 h 7474.9602 c 203.3614,0 381.1617,90.6598 471.8793,223.3108 h 415.6648 v 416.7098 c 194.77,2.4506 352.996,128.9134 352.996,283.2372 v 335.0161 c 0,154.2827 -158.226,280.7591 -352.996,283.2098 v 416.7097"
         style="fill:url(#linearGradient1331);fill-opacity:1.0;fill-rule:evenodd;stroke:none;stroke-width:1.63133"
         id="path1333" /><path
         d="m 1156.3674,6217.274 c 0,-72.8904 -63.1042,-131.9803 -140.9464,-131.9803 -77.82755,0 -140.93177,59.0899 -140.93177,131.9803 0,72.8902 63.10422,131.9665 140.93177,131.9665 77.8422,0 140.9464,-59.0763 140.9464,-131.9665"
         style="fill:#100f0d;fill-opacity:1;fill-rule:evenodd;stroke:none;stroke-width:1.41483"
         id="path1335" /><path
         d="m 9857.5074,6217.274 c 0,-72.8904 63.1744,-131.9803 141.2272,-131.9803 77.9064,0 141.0224,59.0899 141.0224,131.9803 0,72.8902 -63.116,131.9665 -141.0224,131.9665 -78.0528,0 -141.2272,-59.0763 -141.2272,-131.9665"
         style="fill:#100f0d;fill-opacity:1;fill-rule:evenodd;stroke:none;stroke-width:1.41594"
         id="path1337" /></g></g></svg>
